<?xml version="1.0" encoding="utf-8"?>
<!-- Generator: Adobe Illustrator 27.7.0, SVG Export Plug-In . SVG Version: 6.00 Build 0)  -->
<svg version="1.1" id="Layer_1" xmlns="http://www.w3.org/2000/svg" xmlns:xlink="http://www.w3.org/1999/xlink" x="0px" y="0px"
	 viewBox="0 0 196.7 57" style="enable-background:new 0 0 196.7 57;" xml:space="preserve">
<style type="text/css">
	.st0{fill:#FFFFFF;}
	.st1{fill:none;stroke:#003473;stroke-width:0.4746;}
	.st2{fill:#003473;stroke:#FFFFFF;stroke-width:0.75;}
	.st3{fill:#FFE0BF;}
	.st4{fill:#003473;}
	.st5{fill:url(#SVGID_1_);}
</style>
<g>
	<g>
		<path class="st0" d="M66.2,10.3c3.6,0,6.7,0,7.9-0.1c0,0.7,0,3.2,0.1,4.8c-0.2,0.3-1.2,0.3-1.8,0.1c-0.6-1.9-1.5-2.9-3.6-3.2
			c-1.5-0.2-2.9-0.3-4.7-0.3h-2.9c-2.4,0-2.4,0.1-2.4,1.9v6c0,0.8,0.1,0.9,1.3,0.9h3.3c4.9,0,5.8-0.1,6.3-1.5l0.4-1.1
			c0.3-0.2,1.4-0.2,1.7,0c-0.1,0.9-0.2,2.1-0.2,3.4s0.1,2.5,0.2,3.5c-0.3,0.3-1.3,0.3-1.7,0l-0.4-1.3C69.3,22,68.4,22,63.5,22h-3.3
			c-1.3,0-1.3,0.1-1.3,0.9v4.7c0,3.6,0.5,3.7,3.1,3.8l2.4,0.2c0.4,0.2,0.3,0.8-0.1,1c-3.6-0.1-6.1-0.1-8.6-0.1s-5,0-7.6,0.1
			c-0.5-0.1-0.5-0.7-0.1-1l1.2-0.1c2.6-0.2,3.1-0.3,3.1-3.9V15.1c0-3.6-0.5-3.7-3.1-3.9l-0.7-0.1c-0.4-0.2-0.3-0.8,0.1-1
			c2,0.1,4.5,0.1,7,0.1L66.2,10.3L66.2,10.3z"/>
		<path class="st0" d="M80.1,20c0-2.5-0.4-2.6-2.2-2.8l-0.7-0.1c-0.3-0.2-0.2-0.6,0.1-0.7c1.6,0,3.4,0.1,5.2,0.1
			c1.8,0,3.6,0,5.4-0.1c0.3,0.1,0.4,0.5,0.1,0.7l-1,0.2c-1.9,0.2-2.2,0.2-2.2,2.8v5.5c0,3.3,1.7,6.1,7.2,6.1c5.2,0,7.4-2.4,7.4-6v-3
			c0-1.8,0-4-0.8-4.7c-0.4-0.4-1-0.5-2-0.6l-0.8-0.1c-0.4-0.2-0.3-0.6,0.1-0.7c1.4,0,2.9,0.1,4.4,0.1c1.7,0,2.8,0,4.2-0.1
			c0.3,0.1,0.4,0.5,0.1,0.7l-0.9,0.1c-0.8,0.1-1.5,0.2-1.8,0.6c-0.6,0.7-0.6,2.8-0.6,4.7v2.9c0,2.2-0.6,4.2-2.6,5.5
			c-2.1,1.3-5.1,1.8-7.9,1.8c-3.8,0-6.4-0.5-8.3-1.5c-1.8-1-2.6-2.7-2.6-5.1C80.1,26.1,80.1,20,80.1,20z"/>
		<path class="st0" d="M116.9,18.6c0-1,0-1-1.1-1h-2.2c-3.7,0-4.8,0.3-6.2,2.2c-0.3,0.1-1.1,0.1-1.3-0.2c0.7-1.3,1.3-2.8,1.6-3.6
			c0.1-0.1,0.2-0.1,0.4-0.1l0.4,0.1c0.2,0.6,0.8,0.6,3.5,0.6h16.3c2,0,2.6-0.1,3.1-0.6l0.5-0.1c0.2,0,0.4,0.1,0.5,0.1
			c-0.4,1-0.7,3-0.6,3.8c-0.2,0.2-0.9,0.2-1.2,0.1c-0.5-1.9-1.3-2.3-5.6-2.3h-2.3c-1,0-1.1,0-1.1,1V29c0,2.5,0.4,2.6,2.2,2.7
			l1.4,0.1c0.3,0.2,0.2,0.6-0.1,0.7c-2.3,0-4.1-0.1-5.9-0.1s-3.7,0-6.2,0.1c-0.3-0.1-0.4-0.6-0.1-0.7l1.7-0.1
			c1.9-0.1,2.2-0.2,2.2-2.7L116.9,18.6L116.9,18.6z"/>
		<path class="st0" d="M157.8,20.6c-0.3,0.2-1,0.2-1.3,0c-0.7-1.5-2.5-3.5-7.8-3.5c-5.1,0-10.2,2.1-10.2,7.1c0,5.1,5.3,7.6,10.5,7.6
			c5.1,0,7.2-2,8.4-3.6c0.4-0.2,1-0.1,1.2,0.1c-0.3,1.6-1.4,3.2-1.9,3.6c-0.5,0-1,0.1-1.4,0.2c-0.9,0.2-3.6,0.6-6.2,0.6
			c-4,0-7.4-0.5-10.3-1.6c-3.2-1.3-5.7-3.5-5.7-6.6c0-2.8,2.1-5,5.1-6.4c3-1.3,7-2,11.1-2c2.3,0,5.1,0.2,6.9,0.5
			c0.5,0.1,0.8,0.1,1.1,0.1C157.3,17.4,157.4,18.9,157.8,20.6z"/>
		<path class="st0" d="M170.8,24.7c-2,0-2.2,0-2.2,0.7V29c0,2.5,0.4,2.6,2.2,2.7l1.2,0.1c0.3,0.2,0.2,0.6-0.1,0.7
			c-2.1,0-3.9-0.1-5.6-0.1s-3.6,0-5.1,0.1c-0.3-0.1-0.4-0.5-0.1-0.7h0.6c1.9-0.2,2.2-0.2,2.2-2.8v-9c0-2.5-0.4-2.6-2.2-2.8l-0.9-0.1
			c-0.3-0.1-0.2-0.6,0.1-0.7c1.8,0,3.6,0.1,5.4,0.1c1.8,0,3.6,0,5.1-0.1c0.3,0.1,0.4,0.6,0.1,0.7l-0.7,0.1c-1.9,0.1-2.2,0.2-2.2,2.8
			v2.9c0,0.7,0.1,0.7,2.2,0.7h9.4c2,0,2.2,0,2.2-0.7V20c0-2.5-0.4-2.6-2.2-2.8l-0.9-0.1c-0.3-0.1-0.2-0.6,0.1-0.7
			c1.8,0,3.6,0.1,5.4,0.1c1.8,0,3.6,0,5.2-0.1c0.3,0.1,0.4,0.6,0.1,0.7l-0.7,0.1c-1.9,0.1-2.2,0.2-2.2,2.8v9c0,2.5,0.4,2.6,2.2,2.8
			l0.9,0.1c0.3,0.2,0.2,0.6-0.1,0.7c-1.8,0-3.6-0.1-5.3-0.1c-1.9,0-3.6,0-5.4,0.1c-0.3-0.1-0.4-0.5-0.1-0.7l0.9-0.1
			c1.9-0.1,2.2-0.2,2.2-2.8v-3.5c0-0.6-0.1-0.7-2.2-0.7C180.1,24.7,170.8,24.7,170.8,24.7z"/>
		<path class="st0" d="M66.2,10.3c3.6,0,6.7,0,7.9-0.1c0,0.7,0,3.2,0.1,4.8c-0.2,0.3-1.2,0.3-1.8,0.1c-0.6-1.9-1.5-2.9-3.6-3.2
			c-1.5-0.2-2.9-0.3-4.7-0.3h-2.9c-2.4,0-2.4,0.1-2.4,1.9v6c0,0.8,0.1,0.9,1.3,0.9h3.3c4.9,0,5.8-0.1,6.3-1.5l0.4-1.1
			c0.3-0.2,1.4-0.2,1.7,0c-0.1,0.9-0.2,2.1-0.2,3.4s0.1,2.5,0.2,3.5c-0.3,0.3-1.3,0.3-1.7,0l-0.4-1.3C69.3,22,68.4,22,63.5,22h-3.3
			c-1.3,0-1.3,0.1-1.3,0.9v4.7c0,3.6,0.5,3.7,3.1,3.8l2.4,0.2c0.4,0.2,0.3,0.8-0.1,1c-3.6-0.1-6.1-0.1-8.6-0.1s-5,0-7.6,0.1
			c-0.5-0.1-0.5-0.7-0.1-1l1.2-0.1c2.6-0.2,3.1-0.3,3.1-3.9V15.1c0-3.6-0.5-3.7-3.1-3.9l-0.7-0.1c-0.4-0.2-0.3-0.8,0.1-1
			c2,0.1,4.5,0.1,7,0.1L66.2,10.3L66.2,10.3z"/>
		<path class="st0" d="M80.1,20c0-2.5-0.4-2.6-2.2-2.8l-0.7-0.1c-0.3-0.2-0.2-0.6,0.1-0.7c1.6,0,3.4,0.1,5.2,0.1
			c1.8,0,3.6,0,5.4-0.1c0.3,0.1,0.4,0.5,0.1,0.7l-1,0.2c-1.9,0.2-2.2,0.2-2.2,2.8v5.5c0,3.3,1.7,6.1,7.2,6.1c5.2,0,7.4-2.4,7.4-6v-3
			c0-1.8,0-4-0.8-4.7c-0.4-0.4-1-0.5-2-0.6l-0.8-0.1c-0.4-0.2-0.3-0.6,0.1-0.7c1.4,0,2.9,0.1,4.4,0.1c1.7,0,2.8,0,4.2-0.1
			c0.3,0.1,0.4,0.5,0.1,0.7l-0.9,0.1c-0.8,0.1-1.5,0.2-1.8,0.6c-0.6,0.7-0.6,2.8-0.6,4.7v2.9c0,2.2-0.6,4.2-2.6,5.5
			c-2.1,1.3-5.1,1.8-7.9,1.8c-3.8,0-6.4-0.5-8.3-1.5c-1.8-1-2.6-2.7-2.6-5.1C80.1,26.1,80.1,20,80.1,20z"/>
		<path class="st0" d="M116.9,18.6c0-1,0-1-1.1-1h-2.2c-3.7,0-4.8,0.3-6.2,2.2c-0.3,0.1-1.1,0.1-1.3-0.2c0.7-1.3,1.3-2.8,1.6-3.6
			c0.1-0.1,0.2-0.1,0.4-0.1l0.4,0.1c0.2,0.6,0.8,0.6,3.5,0.6h16.3c2,0,2.6-0.1,3.1-0.6l0.5-0.1c0.2,0,0.4,0.1,0.5,0.1
			c-0.4,1-0.7,3-0.6,3.8c-0.2,0.2-0.9,0.2-1.2,0.1c-0.5-1.9-1.3-2.3-5.6-2.3h-2.3c-1,0-1.1,0-1.1,1V29c0,2.5,0.4,2.6,2.2,2.7
			l1.4,0.1c0.3,0.2,0.2,0.6-0.1,0.7c-2.3,0-4.1-0.1-5.9-0.1s-3.7,0-6.2,0.1c-0.3-0.1-0.4-0.6-0.1-0.7l1.7-0.1
			c1.9-0.1,2.2-0.2,2.2-2.7L116.9,18.6L116.9,18.6z"/>
		<path class="st0" d="M157.8,20.6c-0.3,0.2-1,0.2-1.3,0c-0.7-1.5-2.5-3.5-7.8-3.5c-5.1,0-10.2,2.1-10.2,7.1c0,5.1,5.3,7.6,10.5,7.6
			c5.1,0,7.2-2,8.4-3.6c0.4-0.2,1-0.1,1.2,0.1c-0.3,1.6-1.4,3.2-1.9,3.6c-0.5,0-1,0.1-1.4,0.2c-0.9,0.2-3.6,0.6-6.2,0.6
			c-4,0-7.4-0.5-10.3-1.6c-3.2-1.3-5.7-3.5-5.7-6.6c0-2.8,2.1-5,5.1-6.4c3-1.3,7-2,11.1-2c2.3,0,5.1,0.2,6.9,0.5
			c0.5,0.1,0.8,0.1,1.1,0.1C157.3,17.4,157.4,18.9,157.8,20.6z"/>
		<path class="st0" d="M170.8,24.7c-2,0-2.2,0-2.2,0.7V29c0,2.5,0.4,2.6,2.2,2.7l1.2,0.1c0.3,0.2,0.2,0.6-0.1,0.7
			c-2.1,0-3.9-0.1-5.6-0.1s-3.6,0-5.1,0.1c-0.3-0.1-0.4-0.5-0.1-0.7h0.6c1.9-0.2,2.2-0.2,2.2-2.8v-9c0-2.5-0.4-2.6-2.2-2.8l-0.9-0.1
			c-0.3-0.1-0.2-0.6,0.1-0.7c1.8,0,3.6,0.1,5.4,0.1c1.8,0,3.6,0,5.1-0.1c0.3,0.1,0.4,0.6,0.1,0.7l-0.7,0.1c-1.9,0.1-2.2,0.2-2.2,2.8
			v2.9c0,0.7,0.1,0.7,2.2,0.7h9.4c2,0,2.2,0,2.2-0.7V20c0-2.5-0.4-2.6-2.2-2.8l-0.9-0.1c-0.3-0.1-0.2-0.6,0.1-0.7
			c1.8,0,3.6,0.1,5.4,0.1c1.8,0,3.6,0,5.2-0.1c0.3,0.1,0.4,0.6,0.1,0.7l-0.7,0.1c-1.9,0.1-2.2,0.2-2.2,2.8v9c0,2.5,0.4,2.6,2.2,2.8
			l0.9,0.1c0.3,0.2,0.2,0.6-0.1,0.7c-1.8,0-3.6-0.1-5.3-0.1c-1.9,0-3.6,0-5.4,0.1c-0.3-0.1-0.4-0.5-0.1-0.7l0.9-0.1
			c1.9-0.1,2.2-0.2,2.2-2.8v-3.5c0-0.6-0.1-0.7-2.2-0.7C180.1,24.7,170.8,24.7,170.8,24.7z"/>
	</g>
	<g>
		<path class="st0" d="M49.2,39.2c0-1.6,0-1.9-0.7-2l-0.6-0.1c-0.1-0.1-0.1-0.4,0-0.5c1.2-0.1,2.2-0.2,3.8-0.2s2.8,0.2,3.6,0.7
			c0.9,0.5,1.5,1.5,1.5,2.7c0,2.7-2.5,3.5-3.8,3.5c-0.2,0-0.3,0-0.4,0c-0.1-0.1-0.1-0.3,0-0.5c1.6-0.3,2.1-1.5,2.1-3
			s-0.9-2.7-2.5-2.7c-0.9,0-0.9,0-0.9,0.8v7.8c0,1.9,0.2,1.9,1,2l0.6,0.1c0.1,0.1,0.1,0.5,0,0.5c-1,0-1.8,0-2.5,0
			c-0.8,0-1.5,0-2.2,0c-0.1-0.1-0.2-0.4,0-0.5h0.3c0.8-0.1,1-0.2,1-2.1L49.2,39.2L49.2,39.2z"/>
		<path class="st0" d="M58.6,41.8c0-1.2,0-1.4-0.6-1.4h-0.3c-0.1-0.1-0.1-0.3,0-0.4c0.8-0.1,1.8-0.1,2.8-0.1s1.8,0.1,2.3,0.4
			c0.6,0.3,1.1,0.9,1.1,1.9c0,1.2-0.9,1.8-1.5,2c-0.1,0,0,0.1,0,0.2c1,1.7,1.6,2.8,2.2,3.3c0.3,0.3,0.7,0.4,0.8,0.4
			c0.1,0,0.1,0.2,0,0.2c-0.2,0-0.4,0.1-0.8,0.1c-1.2,0-1.8-0.5-2.6-1.7c-0.3-0.5-0.7-1.2-1-1.7c-0.2-0.4-0.3-0.4-0.8-0.4
			c-0.4,0-0.4,0-0.4,0.3v1.6c0,1.3,0.1,1.4,0.7,1.5h0.3c0.1,0.1,0.1,0.3,0,0.4c-0.5,0-1.1,0-1.6,0s-1.1,0-1.7,0
			c-0.1,0-0.1-0.3,0-0.4h0.3c0.6-0.1,0.7-0.1,0.7-1.5L58.6,41.8L58.6,41.8z M60.1,43.7c0,0.4,0,0.4,0.6,0.4c1.2,0,1.8-0.6,1.8-1.8
			c0-1-0.6-1.9-1.7-1.9c-0.6,0-0.7,0-0.7,0.6C60.1,41,60.1,43.7,60.1,43.7z"/>
		<path class="st0" d="M68.1,46.5c0,1.3,0.1,1.4,0.7,1.5h0.3c0.1,0.1,0.1,0.3,0,0.4c-0.5,0-1.1,0-1.6,0s-1.1,0-1.7,0
			c-0.1,0-0.1-0.3,0-0.4h0.3c0.6-0.1,0.7-0.1,0.7-1.5v-4.7c0-1.3-0.1-1.4-0.7-1.5h-0.3c-0.1-0.1-0.1-0.3,0-0.4c0.5,0,1.1,0,1.7,0
			c0.5,0,1.1,0,1.6,0c0.1,0,0.1,0.3,0,0.4h-0.3c-0.6,0.1-0.7,0.1-0.7,1.5V46.5z"/>
		<path class="st0" d="M77.7,46.2c0,0.4,0,2,0,2.2c-0.1,0.1-0.3,0.2-0.4,0.2c-0.2-0.3-0.6-0.7-1.4-1.7L73,43.5
			c-0.8-0.9-1.2-1.4-1.4-1.6c0,0,0,0.1,0,0.8v2.5c0,1,0,2.1,0.2,2.5c0.1,0.2,0.3,0.3,0.6,0.3h0.3c0.1,0.1,0.1,0.3,0,0.4
			c-0.4,0-0.9,0-1.4,0s-0.8,0-1.3,0c-0.1-0.1-0.1-0.3,0-0.4l0.3-0.1c0.2,0,0.4-0.1,0.5-0.3c0.2-0.4,0.2-1.5,0.2-2.5v-3
			c0-1,0-1.2-0.4-1.6c-0.1-0.1-0.5-0.2-0.7-0.2h-0.2c-0.1-0.1-0.1-0.3,0.1-0.4c0.5,0,1.1,0,1.4,0s0.6,0,0.8,0c0.2,0.5,1.5,2.2,2,2.6
			l1.2,1.4c0.5,0.6,1.7,1.9,1.8,2c0,0,0-0.1,0-0.3v-2.5c0-1,0-2.1-0.2-2.5c-0.1-0.2-0.3-0.3-0.6-0.3h-0.3c-0.1-0.1-0.1-0.3,0-0.4
			c0.5,0,0.9,0,1.4,0s0.8,0,1.3,0c0.1,0.1,0.1,0.3,0,0.4l-0.3,0.1c-0.2,0-0.4,0.1-0.5,0.3c-0.2,0.4-0.2,1.5-0.2,2.5L77.7,46.2
			L77.7,46.2z"/>
		<path class="st0" d="M82.6,41c0-0.5,0-0.6-0.3-0.6h-0.7c-1.1,0-1.5,0.1-1.9,1.2c-0.1,0.1-0.3,0-0.4-0.1c0.2-0.7,0.4-1.5,0.5-1.9
			h0.1H80c0.1,0.3,0.2,0.3,1.1,0.3h5c0.6,0,0.8,0,0.9-0.3h0.2c0.1,0,0.1,0,0.2,0.1c-0.1,0.5-0.2,1.6-0.2,2c-0.1,0.1-0.3,0.1-0.4,0
			c-0.2-1-0.4-1.2-1.7-1.2h-0.7c-0.3,0-0.3,0-0.3,0.6v5.5c0,1.3,0.1,1.4,0.7,1.5h0.4c0.1,0.1,0.1,0.3,0,0.4c-0.7,0-1.3,0-1.8,0
			s-1.1,0-1.9,0c-0.1,0-0.1-0.3,0-0.4L82,48c0.6,0,0.7-0.1,0.7-1.4L82.6,41L82.6,41z"/>
		<path class="st0" d="M90.3,46.5c0,1.3,0.1,1.4,0.7,1.5h0.3c0.1,0.1,0.1,0.3,0,0.4c-0.5,0-1.1,0-1.6,0s-1.1,0-1.7,0
			c-0.1,0-0.1-0.3,0-0.4h0.3c0.6-0.1,0.7-0.1,0.7-1.5v-4.7c0-1.3-0.1-1.4-0.7-1.5H88c-0.1-0.1-0.1-0.3,0-0.4c0.5,0,1.1,0,1.7,0
			c0.5,0,1.1,0,1.6,0c0.1,0,0.1,0.3,0,0.4H91c-0.6,0.1-0.7,0.1-0.7,1.5V46.5z"/>
		<path class="st0" d="M100,46.2c0,0.4,0,2,0,2.2c-0.1,0.1-0.3,0.2-0.4,0.2c-0.2-0.3-0.6-0.7-1.4-1.7l-2.9-3.4
			c-0.8-0.9-1.2-1.4-1.4-1.6c0,0,0,0.1,0,0.8v2.5c0,1,0,2.1,0.2,2.5c0.1,0.2,0.3,0.3,0.6,0.3H95c0.1,0.1,0.1,0.3,0,0.4
			c-0.4,0-0.9,0-1.4,0s-0.8,0-1.3,0c-0.1-0.1-0.1-0.3,0-0.4l0.3-0.1c0.2,0,0.4-0.1,0.5-0.3c0.2-0.4,0.2-1.5,0.2-2.5v-3
			c0-1,0-1.2-0.4-1.6c-0.1-0.1-0.5-0.2-0.7-0.2H92c-0.1-0.1-0.1-0.3,0.1-0.4c0.5,0,1.1,0,1.4,0s0.6,0,0.8,0c0.2,0.5,1.5,2.2,2,2.6
			l1.2,1.4c0.5,0.6,1.7,1.9,1.8,2c0,0,0-0.1,0-0.3v-2.5c0-1,0-2.1-0.2-2.5c-0.1-0.2-0.3-0.3-0.6-0.3h-0.3c-0.1-0.1-0.1-0.3,0-0.4
			c0.5,0,0.9,0,1.4,0s0.8,0,1.3,0c0.1,0.1,0.1,0.3,0,0.4l-0.3,0.1c-0.2,0-0.4,0.1-0.5,0.3c-0.2,0.4-0.2,1.5-0.2,2.5L100,46.2
			L100,46.2z"/>
		<path class="st0" d="M109.4,47c0,0.5,0.1,0.8,0.3,0.9v0.2c-0.1,0-0.3,0-0.6,0.1c-0.8,0.2-1.7,0.3-2.4,0.3c-1.5,0-2.8-0.4-3.8-1.4
			c-0.7-0.8-1.1-1.8-1.1-2.9c0-1.1,0.3-2.2,1.1-3c0.9-1,2.2-1.5,3.9-1.5c0.6,0,1.2,0.1,1.6,0.2c0.3,0.1,0.6,0.1,0.8,0.1
			c0,0.4,0.1,1,0.2,2c-0.1,0.1-0.3,0.1-0.4,0c-0.3-1.2-1.1-1.8-2.3-1.8c-2.2,0-3.2,1.6-3.2,3.8c0,1,0.2,2.1,0.9,2.9
			c0.7,0.8,1.6,1.1,2.4,1.1c0.6,0,0.9-0.1,1.1-0.3c0.1-0.1,0.1-0.3,0.1-0.8v-0.5c0-0.9,0-1-0.8-1.1l-0.4-0.1c-0.1-0.1-0.1-0.3,0-0.4
			c0.5,0,1.1,0,1.9,0c0.6,0,1,0,1.5,0c0.1,0.1,0.1,0.3,0,0.4H110c-0.4,0.1-0.5,0.2-0.5,1L109.4,47L109.4,47z"/>
		<path class="st0" d="M49.2,39.2c0-1.6,0-1.9-0.7-2l-0.6-0.1c-0.1-0.1-0.1-0.4,0-0.5c1.2-0.1,2.2-0.2,3.8-0.2s2.8,0.2,3.6,0.7
			c0.9,0.5,1.5,1.5,1.5,2.7c0,2.7-2.5,3.5-3.8,3.5c-0.2,0-0.3,0-0.4,0c-0.1-0.1-0.1-0.3,0-0.5c1.6-0.3,2.1-1.5,2.1-3
			s-0.9-2.7-2.5-2.7c-0.9,0-0.9,0-0.9,0.8v7.8c0,1.9,0.2,1.9,1,2l0.6,0.1c0.1,0.1,0.1,0.5,0,0.5c-1,0-1.8,0-2.5,0
			c-0.8,0-1.5,0-2.2,0c-0.1-0.1-0.2-0.4,0-0.5h0.3c0.8-0.1,1-0.2,1-2.1L49.2,39.2L49.2,39.2z"/>
		<path class="st0" d="M58.6,41.8c0-1.2,0-1.4-0.6-1.4h-0.3c-0.1-0.1-0.1-0.3,0-0.4c0.8-0.1,1.8-0.1,2.8-0.1s1.8,0.1,2.3,0.4
			c0.6,0.3,1.1,0.9,1.1,1.9c0,1.2-0.9,1.8-1.5,2c-0.1,0,0,0.1,0,0.2c1,1.7,1.6,2.8,2.2,3.3c0.3,0.3,0.7,0.4,0.8,0.4
			c0.1,0,0.1,0.2,0,0.2c-0.2,0-0.4,0.1-0.8,0.1c-1.2,0-1.8-0.5-2.6-1.7c-0.3-0.5-0.7-1.2-1-1.7c-0.2-0.4-0.3-0.4-0.8-0.4
			c-0.4,0-0.4,0-0.4,0.3v1.6c0,1.3,0.1,1.4,0.7,1.5h0.3c0.1,0.1,0.1,0.3,0,0.4c-0.5,0-1.1,0-1.6,0s-1.1,0-1.7,0
			c-0.1,0-0.1-0.3,0-0.4h0.3c0.6-0.1,0.7-0.1,0.7-1.5L58.6,41.8L58.6,41.8z M60.1,43.7c0,0.4,0,0.4,0.6,0.4c1.2,0,1.8-0.6,1.8-1.8
			c0-1-0.6-1.9-1.7-1.9c-0.6,0-0.7,0-0.7,0.6C60.1,41,60.1,43.7,60.1,43.7z"/>
		<path class="st0" d="M68.1,46.5c0,1.3,0.1,1.4,0.7,1.5h0.3c0.1,0.1,0.1,0.3,0,0.4c-0.5,0-1.1,0-1.6,0s-1.1,0-1.7,0
			c-0.1,0-0.1-0.3,0-0.4h0.3c0.6-0.1,0.7-0.1,0.7-1.5v-4.7c0-1.3-0.1-1.4-0.7-1.5h-0.3c-0.1-0.1-0.1-0.3,0-0.4c0.5,0,1.1,0,1.7,0
			c0.5,0,1.1,0,1.6,0c0.1,0,0.1,0.3,0,0.4h-0.3c-0.6,0.1-0.7,0.1-0.7,1.5V46.5z"/>
		<path class="st0" d="M77.7,46.2c0,0.4,0,2,0,2.2c-0.1,0.1-0.3,0.2-0.4,0.2c-0.2-0.3-0.6-0.7-1.4-1.7L73,43.5
			c-0.8-0.9-1.2-1.4-1.4-1.6c0,0,0,0.1,0,0.8v2.5c0,1,0,2.1,0.2,2.5c0.1,0.2,0.3,0.3,0.6,0.3h0.3c0.1,0.1,0.1,0.3,0,0.4
			c-0.4,0-0.9,0-1.4,0s-0.8,0-1.3,0c-0.1-0.1-0.1-0.3,0-0.4l0.3-0.1c0.2,0,0.4-0.1,0.5-0.3c0.2-0.4,0.2-1.5,0.2-2.5v-3
			c0-1,0-1.2-0.4-1.6c-0.1-0.1-0.5-0.2-0.7-0.2h-0.2c-0.1-0.1-0.1-0.3,0.1-0.4c0.5,0,1.1,0,1.4,0s0.6,0,0.8,0c0.2,0.5,1.5,2.2,2,2.6
			l1.2,1.4c0.5,0.6,1.7,1.9,1.8,2c0,0,0-0.1,0-0.3v-2.5c0-1,0-2.1-0.2-2.5c-0.1-0.2-0.3-0.3-0.6-0.3h-0.3c-0.1-0.1-0.1-0.3,0-0.4
			c0.5,0,0.9,0,1.4,0s0.8,0,1.3,0c0.1,0.1,0.1,0.3,0,0.4l-0.3,0.1c-0.2,0-0.4,0.1-0.5,0.3c-0.2,0.4-0.2,1.5-0.2,2.5L77.7,46.2
			L77.7,46.2z"/>
		<path class="st0" d="M90.3,46.5c0,1.3,0.1,1.4,0.7,1.5h0.3c0.1,0.1,0.1,0.3,0,0.4c-0.5,0-1.1,0-1.6,0s-1.1,0-1.7,0
			c-0.1,0-0.1-0.3,0-0.4h0.3c0.6-0.1,0.7-0.1,0.7-1.5v-4.7c0-1.3-0.1-1.4-0.7-1.5H88c-0.1-0.1-0.1-0.3,0-0.4c0.5,0,1.1,0,1.7,0
			c0.5,0,1.1,0,1.6,0c0.1,0,0.1,0.3,0,0.4H91c-0.6,0.1-0.7,0.1-0.7,1.5V46.5z"/>
		<path class="st0" d="M100,46.2c0,0.4,0,2,0,2.2c-0.1,0.1-0.3,0.2-0.4,0.2c-0.2-0.3-0.6-0.7-1.4-1.7l-2.9-3.4
			c-0.8-0.9-1.2-1.4-1.4-1.6c0,0,0,0.1,0,0.8v2.5c0,1,0,2.1,0.2,2.5c0.1,0.2,0.3,0.3,0.6,0.3H95c0.1,0.1,0.1,0.3,0,0.4
			c-0.4,0-0.9,0-1.4,0s-0.8,0-1.3,0c-0.1-0.1-0.1-0.3,0-0.4l0.3-0.1c0.2,0,0.4-0.1,0.5-0.3c0.2-0.4,0.2-1.5,0.2-2.5v-3
			c0-1,0-1.2-0.4-1.6c-0.1-0.1-0.5-0.2-0.7-0.2H92c-0.1-0.1-0.1-0.3,0.1-0.4c0.5,0,1.1,0,1.4,0s0.6,0,0.8,0c0.2,0.5,1.5,2.2,2,2.6
			l1.2,1.4c0.5,0.6,1.7,1.9,1.8,2c0,0,0-0.1,0-0.3v-2.5c0-1,0-2.1-0.2-2.5c-0.1-0.2-0.3-0.3-0.6-0.3h-0.3c-0.1-0.1-0.1-0.3,0-0.4
			c0.5,0,0.9,0,1.4,0s0.8,0,1.3,0c0.1,0.1,0.1,0.3,0,0.4l-0.3,0.1c-0.2,0-0.4,0.1-0.5,0.3c-0.2,0.4-0.2,1.5-0.2,2.5L100,46.2
			L100,46.2z"/>
		<path class="st0" d="M109.4,47c0,0.5,0.1,0.8,0.3,0.9v0.2c-0.1,0-0.3,0-0.6,0.1c-0.8,0.2-1.7,0.3-2.4,0.3c-1.5,0-2.8-0.4-3.8-1.4
			c-0.7-0.8-1.1-1.8-1.1-2.9c0-1.1,0.3-2.2,1.1-3c0.9-1,2.2-1.5,3.9-1.5c0.6,0,1.2,0.1,1.6,0.2c0.3,0.1,0.6,0.1,0.8,0.1
			c0,0.4,0.1,1,0.2,2c-0.1,0.1-0.3,0.1-0.4,0c-0.3-1.2-1.1-1.8-2.3-1.8c-2.2,0-3.2,1.6-3.2,3.8c0,1,0.2,2.1,0.9,2.9
			c0.7,0.8,1.6,1.1,2.4,1.1c0.6,0,0.9-0.1,1.1-0.3c0.1-0.1,0.1-0.3,0.1-0.8v-0.5c0-0.9,0-1-0.8-1.1l-0.4-0.1c-0.1-0.1-0.1-0.3,0-0.4
			c0.5,0,1.1,0,1.9,0c0.6,0,1,0,1.5,0c0.1,0.1,0.1,0.3,0,0.4H110c-0.4,0.1-0.5,0.2-0.5,1L109.4,47L109.4,47z"/>
		<path class="st0" d="M122.7,40.2c0,1.5-1.2,2-1.9,2.5c1.5,1,2.3,2,3.3,3.7c0.6-0.9,1.3-2.3,1.9-3.6c0.3-0.8,0.4-1-0.1-1.1
			l-0.6-0.1c-0.2-0.2-0.1-0.5,0.1-0.6h1.1c1,0,2.9-0.1,3.3-0.1c0.1,0.1,0.2,0.4,0,0.6l-0.9,0.2c-1,0.2-1.4,0.8-2.1,2
			c-0.5,0.8-1.2,1.9-2.1,3.2c-0.1,0.2-0.1,0.4,0,0.6c0.8,1.4,1.8,2.2,3.2,2.2c0.6,0,1.2-0.2,1.6-0.6c0.2,0,0.3,0.2,0.3,0.4
			c-1,1.1-2.4,1.5-3.4,1.5c-0.9,0-1.9-0.3-2.3-0.7c-0.3-0.3-0.7-0.9-0.9-1.4c-1.3,1.4-2.6,2-4.1,2c-2.9,0-4-2-4-3.7
			c0-2.2,1.6-3.4,3-4.2c-0.3-0.3-1.4-1.1-1.4-2.5c0-1.9,1.4-3.1,3.1-3.1C121.6,37.5,122.7,38.7,122.7,40.2z M118.8,43.7
			c-0.1,0-0.3,0.1-0.5,0.2c-0.7,0.5-1.2,1.5-1.2,2.6c0,1.7,1.4,3,3.1,3c0.9,0,1.7-0.4,2.3-1c0.3-0.3,0.3-0.4,0.1-0.8
			c-0.5-0.8-1-1.6-1.6-2.2C120.1,44.4,118.9,43.7,118.8,43.7z M118.5,39.8c0,0.9,0.5,1.5,1.3,2.2c0.1,0.1,0.3,0.2,0.3,0.2
			c0.1,0,0.2-0.1,0.2-0.1c0.4-0.4,0.7-1.1,0.7-2c0-1.1-0.5-1.8-1.2-1.8C119.1,38.2,118.5,38.9,118.5,39.8z"/>
		<path class="st0" d="M148.4,48c0.2,0.1,0.2,0.5,0,0.5c-0.7,0-1.4,0-2.1,0c-0.8,0-1.5,0-2.3,0c-0.1-0.1-0.2-0.4,0-0.5l0.5-0.1
			c0.7-0.1,0.7-0.2,0.7-1.5v-5.6v-1.7l0,0c-0.5,1-0.7,1.5-1,2.2l-1.5,3.1c-0.6,1.2-1.4,3.2-1.8,4.1c-0.1,0.1-0.3,0.1-0.4,0
			c-0.3-1-1-2.7-1.4-3.6l-1.5-3.4c-0.3-0.8-0.8-1.9-1-2.4l0,0c0,0.9-0.1,2.3-0.1,3c0,1.1-0.1,2.7-0.1,4.1c0,1.2,0,1.5,0.8,1.6
			l0.6,0.1c0.1,0.1,0.1,0.5,0,0.5c-0.6,0-1.2,0-1.8,0s-1.2,0-1.8,0c-0.1-0.1-0.1-0.4-0.1-0.5h0.3c0.8-0.1,1-0.4,1.1-1.5
			s0.2-2.3,0.3-4.1c0.1-1.2,0.2-2.7,0.2-3.8c0-0.8-0.3-1.2-0.9-1.3l-0.6-0.1c-0.1-0.1-0.1-0.5,0.1-0.5c0.5,0,1,0,1.6,0s1.2,0,1.8,0
			c0.1,1.1,0.5,2,0.9,3l1.9,4.1c0.1,0.3,0.6,1.2,0.8,1.6c0.3-0.5,0.5-1,0.9-1.8l1.6-3.4c0.6-1.2,1.1-2.2,1.4-3.4c0.5,0,1,0,1.4,0
			c0.7,0,1.3,0,1.8,0c0.2,0.1,0.2,0.4,0.1,0.5l-0.6,0.1c-0.8,0.1-0.9,0.4-0.9,1.3c0,2.6,0,5.3,0.1,7.9c0.1,1.2,0.2,1.3,0.8,1.4
			L148.4,48z"/>
		<path class="st0" d="M151.7,45.3c-0.3,0-0.3,0-0.4,0.3l-0.5,1.5c-0.2,0.8-0.2,0.8,0.3,0.8l0.4,0.1c0.1,0.1,0.1,0.3,0,0.4
			c-0.4,0-0.8,0-1.3,0c-0.4,0-0.8,0-1.2,0c-0.1-0.1-0.1-0.2,0-0.4l0.4-0.1c0.4,0,0.5-0.2,0.7-0.6c0.1-0.3,0.3-0.9,0.6-1.5l1.7-4.5
			c0.2-0.4,0.3-0.7,0.2-0.9c0.4-0.1,0.8-0.6,0.9-0.6c0.1,0,0.2,0,0.2,0.1c0.2,0.6,0.4,1.2,0.6,1.8l1.8,5.3c0.3,0.8,0.3,0.9,1,1.1
			h0.2c0.1,0.1,0.1,0.3,0,0.4c-0.5,0-1,0-1.6,0c-0.5,0-1.1,0-1.5,0c-0.1-0.1-0.1-0.3,0-0.4h0.3c0.4,0,0.5-0.1,0.3-0.7l-0.6-1.7
			c-0.1-0.3-0.2-0.3-0.5-0.3L151.7,45.3L151.7,45.3z M153.2,44.8c0.3,0,0.4,0,0.3-0.3L153,43c-0.2-0.7-0.3-0.9-0.3-1l0,0
			c-0.1,0.1-0.1,0.4-0.4,1l-0.5,1.5c-0.1,0.4-0.1,0.4,0.2,0.4h1.2V44.8z"/>
		<path class="st0" d="M159.8,46.6c0,1.3,0.1,1.4,0.7,1.5h0.3c0.1,0.1,0.1,0.3,0,0.4c-0.5,0-1.1,0-1.6,0s-1.1,0-1.6,0
			c-0.1,0-0.1-0.3,0-0.4h0.3c0.6-0.1,0.7-0.1,0.7-1.5v-4.7c0-1.3-0.1-1.4-0.7-1.5h-0.3c-0.1-0.1-0.1-0.3,0-0.4c0.5,0,1.1,0,1.6,0
			s1.1,0,1.6,0c0.1,0,0.1,0.3,0,0.4h-0.3c-0.6,0.1-0.7,0.1-0.7,1.5V46.6z"/>
		<path class="st0" d="M164.1,46.3c0,0.6,0,1.1,0.2,1.3c0.1,0.2,0.3,0.3,1.3,0.3c1.4,0,1.6-0.1,2.1-1.4c0.1-0.1,0.3,0,0.4,0.1
			c-0.1,0.5-0.4,1.5-0.5,1.8c-0.5,0-1.6,0-2.9,0h-1.3c-0.6,0-1.2,0-1.8,0c-0.1,0-0.1-0.3,0-0.4l0.4-0.1c0.6-0.1,0.7-0.1,0.7-1.4
			v-4.7c0-1.3-0.1-1.4-0.7-1.5h-0.3c-0.1-0.1-0.1-0.3,0-0.4c0.6,0,1.2,0,1.7,0s1.1,0,1.6,0c0.1,0,0.1,0.3,0,0.4h-0.3
			c-0.6,0.1-0.7,0.1-0.7,1.5L164.1,46.3L164.1,46.3z"/>
		<path class="st0" d="M170.9,46.6c0,1.3,0.1,1.4,0.7,1.5h0.3c0.1,0.1,0.1,0.3,0,0.4c-0.5,0-1.1,0-1.6,0s-1.1,0-1.6,0
			c-0.1,0-0.1-0.3,0-0.4h0.3c0.6-0.1,0.7-0.1,0.7-1.5v-4.7c0-1.3-0.1-1.4-0.7-1.5h-0.3c-0.1-0.1-0.1-0.3,0-0.4c0.5,0,1.1,0,1.6,0
			s1.1,0,1.6,0c0.1,0,0.1,0.3,0,0.4h-0.3c-0.6,0.1-0.7,0.1-0.7,1.5V46.6z"/>
		<path class="st0" d="M180.6,46.3c0,0.4,0,2,0,2.2c-0.1,0.1-0.3,0.2-0.4,0.2c-0.2-0.3-0.6-0.7-1.4-1.7l-2.9-3.4
			c-0.8-0.9-1.2-1.4-1.4-1.6c0,0,0,0.1,0,0.8v2.5c0,1,0,2.1,0.2,2.5c0.1,0.2,0.3,0.3,0.6,0.3h0.3c0.1,0.1,0.1,0.3,0,0.4
			c-0.4,0-0.9,0-1.4,0s-0.8,0-1.3,0c-0.1-0.1-0.1-0.3,0-0.4l0.3-0.1c0.2,0,0.4-0.1,0.5-0.3c0.2-0.4,0.2-1.5,0.2-2.5v-3
			c0-1,0-1.2-0.4-1.6c-0.1-0.1-0.5-0.2-0.6-0.2h-0.2c-0.1-0.1-0.1-0.3,0.1-0.4c0.5,0,1.1,0,1.4,0c0.3,0,0.6,0,0.8,0
			c0.2,0.5,1.5,2.2,2,2.6l1.2,1.4c0.5,0.6,1.6,1.9,1.8,2c0,0,0-0.1,0-0.3v-2.5c0-1,0-2.1-0.2-2.5c-0.1-0.2-0.3-0.3-0.6-0.3h-0.3
			c-0.1-0.1-0.1-0.3,0-0.4c0.5,0,0.9,0,1.4,0s0.8,0,1.3,0c0.1,0.1,0.1,0.3,0,0.4l-0.3,0.1c-0.2,0-0.4,0.1-0.5,0.3
			c-0.2,0.4-0.2,1.5-0.2,2.5L180.6,46.3L180.6,46.3z"/>
		<path class="st0" d="M190,47.1c0,0.5,0.1,0.8,0.3,0.9v0.2c-0.1,0-0.4,0-0.6,0.1c-0.8,0.2-1.7,0.3-2.4,0.3c-1.5,0-2.9-0.4-3.8-1.4
			c-0.7-0.8-1.1-1.8-1.1-2.9c0-1.1,0.4-2.2,1.1-3c0.9-1,2.2-1.5,3.9-1.5c0.6,0,1.2,0.1,1.6,0.2c0.3,0.1,0.6,0.1,0.8,0.1
			c0,0.4,0.1,1,0.2,2c-0.1,0.1-0.3,0.1-0.4,0c-0.3-1.2-1.1-1.8-2.4-1.8c-2.1,0-3.2,1.6-3.2,3.8c0,1,0.2,2.1,0.9,2.9
			c0.7,0.8,1.6,1.1,2.4,1.1c0.6,0,0.9-0.1,1.1-0.3c0.1-0.1,0.1-0.3,0.1-0.8v-0.5c0-0.9,0-1-0.8-1.1l-0.4-0.1c-0.1-0.1-0.1-0.3,0-0.4
			c0.5,0,1.1,0,1.9,0c0.6,0,1,0,1.5,0c0.1,0.1,0.1,0.3,0,0.4h-0.2c-0.4,0.1-0.5,0.2-0.5,1L190,47.1L190,47.1z"/>
		<path class="st0" d="M148.4,48c0.2,0.1,0.2,0.5,0,0.5c-0.7,0-1.4,0-2.1,0c-0.8,0-1.5,0-2.3,0c-0.1-0.1-0.2-0.4,0-0.5l0.5-0.1
			c0.7-0.1,0.7-0.2,0.7-1.5v-5.6v-1.7l0,0c-0.5,1-0.7,1.5-1,2.2l-1.5,3.1c-0.6,1.2-1.4,3.2-1.8,4.1c-0.1,0.1-0.3,0.1-0.4,0
			c-0.3-1-1-2.7-1.4-3.6l-1.5-3.4c-0.3-0.8-0.8-1.9-1-2.4l0,0c0,0.9-0.1,2.3-0.1,3c0,1.1-0.1,2.7-0.1,4.1c0,1.2,0,1.5,0.8,1.6
			l0.6,0.1c0.1,0.1,0.1,0.5,0,0.5c-0.6,0-1.2,0-1.8,0s-1.2,0-1.8,0c-0.1-0.1-0.1-0.4-0.1-0.5h0.3c0.8-0.1,1-0.4,1.1-1.5
			s0.2-2.3,0.3-4.1c0.1-1.2,0.2-2.7,0.2-3.8c0-0.8-0.3-1.2-0.9-1.3l-0.6-0.1c-0.1-0.1-0.1-0.5,0.1-0.5c0.5,0,1,0,1.6,0s1.2,0,1.8,0
			c0.1,1.1,0.5,2,0.9,3l1.9,4.1c0.1,0.3,0.6,1.2,0.8,1.6c0.3-0.5,0.5-1,0.9-1.8l1.6-3.4c0.6-1.2,1.1-2.2,1.4-3.4c0.5,0,1,0,1.4,0
			c0.7,0,1.3,0,1.8,0c0.2,0.1,0.2,0.4,0.1,0.5l-0.6,0.1c-0.8,0.1-0.9,0.4-0.9,1.3c0,2.6,0,5.3,0.1,7.9c0.1,1.2,0.2,1.3,0.8,1.4
			L148.4,48z"/>
		<path class="st0" d="M151.7,45.3c-0.3,0-0.3,0-0.4,0.3l-0.5,1.5c-0.2,0.8-0.2,0.8,0.3,0.8l0.4,0.1c0.1,0.1,0.1,0.3,0,0.4
			c-0.4,0-0.8,0-1.3,0c-0.4,0-0.8,0-1.2,0c-0.1-0.1-0.1-0.2,0-0.4l0.4-0.1c0.4,0,0.5-0.2,0.7-0.6c0.1-0.3,0.3-0.9,0.6-1.5l1.7-4.5
			c0.2-0.4,0.3-0.7,0.2-0.9c0.4-0.1,0.8-0.6,0.9-0.6c0.1,0,0.2,0,0.2,0.1c0.2,0.6,0.4,1.2,0.6,1.8l1.8,5.3c0.3,0.8,0.3,0.9,1,1.1
			h0.2c0.1,0.1,0.1,0.3,0,0.4c-0.5,0-1,0-1.6,0c-0.5,0-1.1,0-1.5,0c-0.1-0.1-0.1-0.3,0-0.4h0.3c0.4,0,0.5-0.1,0.3-0.7l-0.6-1.7
			c-0.1-0.3-0.2-0.3-0.5-0.3L151.7,45.3L151.7,45.3z M153.2,44.8c0.3,0,0.4,0,0.3-0.3L153,43c-0.2-0.7-0.3-0.9-0.3-1l0,0
			c-0.1,0.1-0.1,0.4-0.4,1l-0.5,1.5c-0.1,0.4-0.1,0.4,0.2,0.4h1.2V44.8z"/>
		<path class="st0" d="M159.8,46.6c0,1.3,0.1,1.4,0.7,1.5h0.3c0.1,0.1,0.1,0.3,0,0.4c-0.5,0-1.1,0-1.6,0s-1.1,0-1.6,0
			c-0.1,0-0.1-0.3,0-0.4h0.3c0.6-0.1,0.7-0.1,0.7-1.5v-4.7c0-1.3-0.1-1.4-0.7-1.5h-0.3c-0.1-0.1-0.1-0.3,0-0.4c0.5,0,1.1,0,1.6,0
			s1.1,0,1.6,0c0.1,0,0.1,0.3,0,0.4h-0.3c-0.6,0.1-0.7,0.1-0.7,1.5V46.6z"/>
		<path class="st0" d="M164.1,46.3c0,0.6,0,1.1,0.2,1.3c0.1,0.2,0.3,0.3,1.3,0.3c1.4,0,1.6-0.1,2.1-1.4c0.1-0.1,0.3,0,0.4,0.1
			c-0.1,0.5-0.4,1.5-0.5,1.8c-0.5,0-1.6,0-2.9,0h-1.3c-0.6,0-1.2,0-1.8,0c-0.1,0-0.1-0.3,0-0.4l0.4-0.1c0.6-0.1,0.7-0.1,0.7-1.4
			v-4.7c0-1.3-0.1-1.4-0.7-1.5h-0.3c-0.1-0.1-0.1-0.3,0-0.4c0.6,0,1.2,0,1.7,0s1.1,0,1.6,0c0.1,0,0.1,0.3,0,0.4h-0.3
			c-0.6,0.1-0.7,0.1-0.7,1.5L164.1,46.3L164.1,46.3z"/>
		<path class="st0" d="M170.9,46.6c0,1.3,0.1,1.4,0.7,1.5h0.3c0.1,0.1,0.1,0.3,0,0.4c-0.5,0-1.1,0-1.6,0s-1.1,0-1.6,0
			c-0.1,0-0.1-0.3,0-0.4h0.3c0.6-0.1,0.7-0.1,0.7-1.5v-4.7c0-1.3-0.1-1.4-0.7-1.5h-0.3c-0.1-0.1-0.1-0.3,0-0.4c0.5,0,1.1,0,1.6,0
			s1.1,0,1.6,0c0.1,0,0.1,0.3,0,0.4h-0.3c-0.6,0.1-0.7,0.1-0.7,1.5V46.6z"/>
		<path class="st0" d="M180.6,46.3c0,0.4,0,2,0,2.2c-0.1,0.1-0.3,0.2-0.4,0.2c-0.2-0.3-0.6-0.7-1.4-1.7l-2.9-3.4
			c-0.8-0.9-1.2-1.4-1.4-1.6c0,0,0,0.1,0,0.8v2.5c0,1,0,2.1,0.2,2.5c0.1,0.2,0.3,0.3,0.6,0.3h0.3c0.1,0.1,0.1,0.3,0,0.4
			c-0.4,0-0.9,0-1.4,0s-0.8,0-1.3,0c-0.1-0.1-0.1-0.3,0-0.4l0.3-0.1c0.2,0,0.4-0.1,0.5-0.3c0.2-0.4,0.2-1.5,0.2-2.5v-3
			c0-1,0-1.2-0.4-1.6c-0.1-0.1-0.5-0.2-0.6-0.2h-0.2c-0.1-0.1-0.1-0.3,0.1-0.4c0.5,0,1.1,0,1.4,0c0.3,0,0.6,0,0.8,0
			c0.2,0.5,1.5,2.2,2,2.6l1.2,1.4c0.5,0.6,1.6,1.9,1.8,2c0,0,0-0.1,0-0.3v-2.5c0-1,0-2.1-0.2-2.5c-0.1-0.2-0.3-0.3-0.6-0.3h-0.3
			c-0.1-0.1-0.1-0.3,0-0.4c0.5,0,0.9,0,1.4,0s0.8,0,1.3,0c0.1,0.1,0.1,0.3,0,0.4l-0.3,0.1c-0.2,0-0.4,0.1-0.5,0.3
			c-0.2,0.4-0.2,1.5-0.2,2.5L180.6,46.3L180.6,46.3z"/>
		<path class="st0" d="M190,47.1c0,0.5,0.1,0.8,0.3,0.9v0.2c-0.1,0-0.4,0-0.6,0.1c-0.8,0.2-1.7,0.3-2.4,0.3c-1.5,0-2.9-0.4-3.8-1.4
			c-0.7-0.8-1.1-1.8-1.1-2.9c0-1.1,0.4-2.2,1.1-3c0.9-1,2.2-1.5,3.9-1.5c0.6,0,1.2,0.1,1.6,0.2c0.3,0.1,0.6,0.1,0.8,0.1
			c0,0.4,0.1,1,0.2,2c-0.1,0.1-0.3,0.1-0.4,0c-0.3-1.2-1.1-1.8-2.4-1.8c-2.1,0-3.2,1.6-3.2,3.8c0,1,0.2,2.1,0.9,2.9
			c0.7,0.8,1.6,1.1,2.4,1.1c0.6,0,0.9-0.1,1.1-0.3c0.1-0.1,0.1-0.3,0.1-0.8v-0.5c0-0.9,0-1-0.8-1.1l-0.4-0.1c-0.1-0.1-0.1-0.3,0-0.4
			c0.5,0,1.1,0,1.9,0c0.6,0,1,0,1.5,0c0.1,0.1,0.1,0.3,0,0.4h-0.2c-0.4,0.1-0.5,0.2-0.5,1L190,47.1L190,47.1z"/>
	</g>
	<g>
		<polygon class="st1" points="19.3,11.8 7.8,29.9 21.3,47.8 39.5,20.1 		"/>
		<polygon class="st2" points="19.4,10.4 7.2,29.8 21.2,48.2 40.3,19 		"/>
		<polygon class="st3" points="19.5,9.3 7.3,28.7 21.2,47.1 40.4,17.9 		"/>
		<path class="st4" d="M22.8,25v5.1c0,3.9,0.1,7.2,2.2,7.4l1.3,0.1c0.2,0.2,0.2,0.9-0.1,0.9c-2.1,0.1-3,0.6-4.6,0.9
			c-1.8,0.4-3.3,1.5-5,1.5c-0.2-0.1-0.3-0.7-0.1-0.9l0.9-0.1c2.1-0.3,2.2-5.9,2.2-9.8V16.8c0-3.9-0.1-4.4-2.2-4.7L16.8,12
			c-0.2-0.1-0.1-0.8,0.1-0.9c1.6,0.1,2.8,0.1,4.3,0.1H28c2.4,0,4.5,0,5-0.1c0,1.7,0,3.5,0.1,4.9c-0.1,0.2-0.6,0.3-0.9,0.1
			c-0.3-1.7-0.7-3-2.6-3.5c-0.8-0.2-2-0.2-3.6-0.2h-2.3c-1.1,0-1.1,0.1-1.1,1.5v7.8L22.8,25L22.8,25z"/>
		<path class="st3" d="M30.6,24.8c-2.2,2.9-5.6,3.5-8.1,5.8c-0.8,0.4-1,1.4-0.6,2.1c0.4,0.7,1.3,1,2.1,0.6c0.8-0.3,1-0.4,1.7-0.8"/>
		<path class="st4" d="M12.1,27.7c2.6-1.7,5.4-2.8,8.2-4c2.1-0.9,4.2-1.5,6.5-1.3c1.4,0.1,2.9,0,4,1.4c0,0.5,3.4-0.8,2.8-1.8
			c-0.7-1.1-1.8-1.6-2.9-2c-2.4-0.6-4.6-0.3-7,0.2c-3.1,0.7-5.6,2.3-8.4,3.8c-1.4,0.8-2.5,1.9-3.7,3c-0.2,0.1-0.2,0.5-0.1,0.7
			C11.6,27.8,11.9,27.9,12.1,27.7z"/>
		
			<linearGradient id="SVGID_1_" gradientUnits="userSpaceOnUse" x1="-610.0958" y1="435.1115" x2="-609.6829" y2="435.1115" gradientTransform="matrix(52.5553 0 0 -52.5553 32075.7773 22892.9922)">
			<stop  offset="0" style="stop-color:#003473"/>
			<stop  offset="0.1704" style="stop-color:#4A386A"/>
			<stop  offset="0.5628" style="stop-color:#C72A47"/>
			<stop  offset="0.6526" style="stop-color:#ED1A3B"/>
			<stop  offset="0.6843" style="stop-color:#EE273B"/>
			<stop  offset="0.7298" style="stop-color:#EF413A"/>
			<stop  offset="0.7836" style="stop-color:#F16039"/>
			<stop  offset="0.8438" style="stop-color:#F58136"/>
			<stop  offset="0.9092" style="stop-color:#FAA82D"/>
			<stop  offset="0.978" style="stop-color:#FFD803"/>
			<stop  offset="1" style="stop-color:#FFE800"/>
		</linearGradient>
		<path class="st5" d="M12.3,26.5c2.6-1.7,5.3-2.8,8.2-4c2.1-0.9,4.3-1.5,6.5-1.3c1.4,0.1,2.9,0,4,1.4c0,0.5-0.2,0.7-0.3,1
			c0,0.1-0.3,0.4-0.3,0.5c-2.2,2.9-5.6,3.5-8.1,5.8c-0.8,0.4-1,1.4-0.6,2.1c0.4,0.7,1.4,1,2.1,0.6c2.1-0.6,3.8-1.9,5.8-3.1
			c2.2-1.4,4-3.2,4.7-5.7c0.3-1,0.2-2.1-0.5-3.1c-0.7-1.1-1.8-1.6-3-2c-2.4-0.6-4.6-0.3-7,0.2c-3.1,0.7-5.6,2.3-8.4,3.8
			c-1.4,0.8-2.5,1.9-3.7,3c-0.2,0.1-0.2,0.5-0.1,0.7C11.8,26.6,12.1,26.7,12.3,26.5z"/>
	</g>
</g>
<path class="st4" d="M61.1-37.5c3.6,0,6.7,0,7.9-0.1c0,0.7,0,3.2,0.1,4.8c-0.2,0.3-1.2,0.3-1.8,0.1c-0.6-1.9-1.5-2.9-3.6-3.2
	c-1.5-0.2-2.9-0.3-4.7-0.3h-2.9c-2.4,0-2.4,0.1-2.4,1.9v6c0,0.8,0.1,0.9,1.3,0.9h3.3c4.9,0,5.8-0.1,6.3-1.5l0.4-1.1
	c0.3-0.2,1.4-0.2,1.7,0c-0.1,0.9-0.2,2.1-0.2,3.4s0.1,2.5,0.2,3.5c-0.3,0.3-1.3,0.3-1.7,0l-0.4-1.3c-0.5-1.4-1.4-1.5-6.3-1.5h-3.3
	c-1.3,0-1.3,0.1-1.3,0.9v4.7c0,3.6,0.5,3.7,3.1,3.8l2.4,0.2c0.4,0.2,0.3,0.8-0.1,1c-3.6-0.1-6.1-0.1-8.6-0.1s-5,0-7.6,0.1
	c-0.4-0.1-0.5-0.7-0.1-1l1.2-0.1c2.6-0.2,3.1-0.3,3.1-3.9v-12.5c0-3.6-0.5-3.7-3.1-3.9l-0.7-0.1c-0.4-0.2-0.3-0.8,0.1-1
	c2,0.1,4.5,0.1,7,0.1H61.1z"/>
</svg>
