<?xml version="1.0" encoding="utf-8"?>
<!-- Generator: Adobe Illustrator 26.4.1, SVG Export Plug-In . SVG Version: 6.00 Build 0)  -->
<svg version="1.1" id="Layer_1" xmlns="http://www.w3.org/2000/svg" xmlns:xlink="http://www.w3.org/1999/xlink" x="0px" y="0px"
	 viewBox="0 0 196.73 57" style="enable-background:new 0 0 196.73 57;" xml:space="preserve">
<style type="text/css">
	.st0{fill:#003473;}
	.st1{fill:none;stroke:#003473;stroke-width:0.4746;}
	.st2{fill:#FFFFFF;stroke:#003473;stroke-width:0.75;}
	.st3{fill:#FFE0BF;}
	.st4{fill:url(#SVGID_1_);}
</style>
<g>
	<g>
		<path class="st0" d="M66.18,10.26c3.59,0,6.74-0.03,7.92-0.1c0,0.74,0,3.25,0.11,4.83c-0.23,0.27-1.24,0.33-1.8,0.13
			c-0.56-1.94-1.46-2.92-3.59-3.25c-1.52-0.23-2.92-0.27-4.72-0.27h-2.86c-2.36,0-2.36,0.07-2.36,1.95v6c0,0.84,0.06,0.91,1.35,0.91
			h3.31c4.88,0,5.78-0.07,6.29-1.48l0.45-1.14c0.34-0.24,1.41-0.24,1.68,0.03c-0.06,0.87-0.17,2.11-0.17,3.35
			c0,1.24,0.11,2.45,0.17,3.49c-0.28,0.27-1.35,0.27-1.68,0.03l-0.45-1.31c-0.51-1.41-1.4-1.48-6.29-1.48h-3.31
			c-1.29,0-1.35,0.07-1.35,0.91v4.7c0,3.56,0.51,3.66,3.14,3.79l2.36,0.17c0.39,0.24,0.34,0.84-0.11,0.97
			c-3.59-0.07-6.12-0.1-8.59-0.1c-2.47,0-5,0.03-7.58,0.1c-0.45-0.14-0.51-0.74-0.11-0.97l1.24-0.1c2.64-0.2,3.14-0.3,3.14-3.86
			V15.09c0-3.56-0.51-3.66-3.14-3.89l-0.73-0.07c-0.39-0.24-0.34-0.84,0.11-0.97c1.97,0.07,4.49,0.1,6.96,0.1H66.18z"/>
		<path class="st0" d="M80.13,20.04c0-2.54-0.36-2.61-2.24-2.78l-0.68-0.07c-0.28-0.17-0.24-0.57,0.08-0.67
			c1.6,0.05,3.41,0.07,5.17,0.07c1.8,0,3.61-0.02,5.37-0.07c0.32,0.1,0.36,0.5,0.08,0.67l-0.88,0.07c-1.88,0.17-2.25,0.24-2.25,2.78
			v5.48c0,3.31,1.68,6.08,7.25,6.08c5.25,0,7.42-2.37,7.42-6.01V22.6c0-1.8-0.04-4.02-0.76-4.72c-0.36-0.36-1-0.53-2.01-0.62
			l-0.8-0.07c-0.36-0.17-0.32-0.6,0.08-0.67c1.36,0.05,2.88,0.07,4.45,0.07c1.68,0,2.77-0.02,4.25-0.07c0.32,0.12,0.4,0.5,0.08,0.67
			l-0.88,0.12c-0.76,0.09-1.48,0.19-1.77,0.57c-0.56,0.72-0.56,2.83-0.56,4.72v2.85c0,2.18-0.56,4.19-2.64,5.53
			c-2.09,1.34-5.09,1.79-7.86,1.79c-3.76,0-6.41-0.48-8.26-1.53c-1.8-1.03-2.64-2.71-2.64-5.13V20.04z"/>
		<path class="st0" d="M116.9,18.6c0-1-0.04-1.05-1.08-1.05h-2.25c-3.69,0-4.77,0.26-6.25,2.2c-0.28,0.14-1.12,0.07-1.28-0.17
			c0.68-1.29,1.28-2.78,1.56-3.61c0.08-0.07,0.24-0.1,0.44-0.1l0.4,0.1c0.2,0.6,0.76,0.62,3.49,0.62h16.35
			c1.96,0,2.57-0.07,3.05-0.62l0.48-0.1c0.24,0,0.44,0.05,0.52,0.12c-0.4,0.98-0.73,3.04-0.6,3.81c-0.2,0.19-0.88,0.24-1.24,0.07
			c-0.52-1.87-1.28-2.32-5.57-2.32h-2.28c-1.04,0-1.08,0.05-1.08,1.05v10.35c0,2.54,0.36,2.61,2.24,2.73l1.44,0.1
			c0.28,0.17,0.24,0.6-0.08,0.69c-2.32-0.05-4.13-0.07-5.89-0.07c-1.76,0-3.65,0.02-6.22,0.07c-0.32-0.09-0.36-0.57-0.08-0.69
			l1.69-0.12c1.89-0.1,2.25-0.17,2.25-2.71V18.6z"/>
		<path class="st0" d="M157.76,20.62c-0.28,0.19-1,0.21-1.28,0.05c-0.68-1.51-2.49-3.5-7.78-3.5c-5.09,0-10.22,2.15-10.22,7.06
			c0,5.1,5.33,7.59,10.5,7.59c5.05,0,7.25-2.01,8.38-3.57c0.36-0.22,1-0.12,1.2,0.09c-0.28,1.6-1.36,3.19-1.92,3.64
			c-0.48,0.05-0.96,0.14-1.4,0.21c-0.88,0.17-3.65,0.57-6.25,0.57c-3.97,0-7.38-0.48-10.26-1.6c-3.25-1.27-5.69-3.45-5.69-6.59
			c0-2.8,2.08-4.98,5.05-6.35c2.97-1.34,7.02-2.04,11.06-2.04c2.29,0,5.05,0.24,6.93,0.53c0.48,0.07,0.76,0.09,1.12,0.14
			C157.27,17.43,157.35,18.85,157.76,20.62z"/>
		<path class="st0" d="M170.75,24.74c-2.04,0-2.16,0.05-2.16,0.69v3.52c0,2.54,0.36,2.61,2.24,2.73l1.2,0.1
			c0.28,0.17,0.24,0.6-0.08,0.69c-2.08-0.05-3.89-0.07-5.65-0.07c-1.76,0-3.57,0.02-5.09,0.07c-0.32-0.09-0.36-0.53-0.08-0.69
			l0.56-0.05c1.88-0.17,2.24-0.24,2.24-2.78v-8.91c0-2.54-0.36-2.61-2.24-2.75l-0.88-0.07c-0.28-0.12-0.24-0.6,0.08-0.69
			c1.76,0.05,3.65,0.07,5.41,0.07c1.76,0,3.57-0.02,5.13-0.07c0.32,0.1,0.36,0.57,0.08,0.69l-0.68,0.07
			c-1.88,0.14-2.24,0.22-2.24,2.75v2.9c0,0.67,0.12,0.72,2.16,0.72h9.38c2.04,0,2.16-0.05,2.16-0.72v-2.9
			c0-2.54-0.36-2.61-2.25-2.75l-0.88-0.07c-0.28-0.12-0.24-0.6,0.08-0.69c1.84,0.05,3.65,0.07,5.41,0.07c1.76,0,3.57-0.02,5.17-0.07
			c0.32,0.1,0.36,0.57,0.08,0.69l-0.72,0.07c-1.88,0.14-2.24,0.22-2.24,2.75v8.91c0,2.54,0.36,2.61,2.24,2.75l0.88,0.07
			c0.28,0.17,0.24,0.6-0.08,0.69c-1.76-0.05-3.57-0.07-5.33-0.07c-1.85,0-3.65,0.02-5.41,0.07c-0.32-0.09-0.36-0.53-0.08-0.69
			l0.88-0.07c1.89-0.14,2.25-0.21,2.25-2.75v-3.52c0-0.65-0.12-0.69-2.16-0.69H170.75z"/>
		<path class="st0" d="M66.18,10.26c3.59,0,6.74-0.03,7.92-0.1c0,0.74,0,3.25,0.11,4.83c-0.23,0.27-1.24,0.33-1.8,0.13
			c-0.56-1.94-1.46-2.92-3.59-3.25c-1.52-0.23-2.92-0.27-4.72-0.27h-2.86c-2.36,0-2.36,0.07-2.36,1.95v6c0,0.84,0.06,0.91,1.35,0.91
			h3.31c4.88,0,5.78-0.07,6.29-1.48l0.45-1.14c0.34-0.24,1.41-0.24,1.68,0.03c-0.06,0.87-0.17,2.11-0.17,3.35
			c0,1.24,0.11,2.45,0.17,3.49c-0.28,0.27-1.35,0.27-1.68,0.03l-0.45-1.31c-0.51-1.41-1.4-1.48-6.29-1.48h-3.31
			c-1.29,0-1.35,0.07-1.35,0.91v4.7c0,3.56,0.51,3.66,3.14,3.79l2.36,0.17c0.39,0.24,0.34,0.84-0.11,0.97
			c-3.59-0.07-6.12-0.1-8.59-0.1c-2.47,0-5,0.03-7.58,0.1c-0.45-0.14-0.51-0.74-0.11-0.97l1.24-0.1c2.64-0.2,3.14-0.3,3.14-3.86
			V15.09c0-3.56-0.51-3.66-3.14-3.89l-0.73-0.07c-0.39-0.24-0.34-0.84,0.11-0.97c1.97,0.07,4.49,0.1,6.96,0.1H66.18z"/>
		<path class="st0" d="M80.13,20.04c0-2.54-0.36-2.61-2.24-2.78l-0.68-0.07c-0.28-0.17-0.24-0.57,0.08-0.67
			c1.6,0.05,3.41,0.07,5.17,0.07c1.8,0,3.61-0.02,5.37-0.07c0.32,0.1,0.36,0.5,0.08,0.67l-0.88,0.07c-1.88,0.17-2.25,0.24-2.25,2.78
			v5.48c0,3.31,1.68,6.08,7.25,6.08c5.25,0,7.42-2.37,7.42-6.01V22.6c0-1.8-0.04-4.02-0.76-4.72c-0.36-0.36-1-0.53-2.01-0.62
			l-0.8-0.07c-0.36-0.17-0.32-0.6,0.08-0.67c1.36,0.05,2.88,0.07,4.45,0.07c1.68,0,2.77-0.02,4.25-0.07c0.32,0.12,0.4,0.5,0.08,0.67
			l-0.88,0.12c-0.76,0.09-1.48,0.19-1.77,0.57c-0.56,0.72-0.56,2.83-0.56,4.72v2.85c0,2.18-0.56,4.19-2.64,5.53
			c-2.09,1.34-5.09,1.79-7.86,1.79c-3.76,0-6.41-0.48-8.26-1.53c-1.8-1.03-2.64-2.71-2.64-5.13V20.04z"/>
		<path class="st0" d="M116.9,18.6c0-1-0.04-1.05-1.08-1.05h-2.25c-3.69,0-4.77,0.26-6.25,2.2c-0.28,0.14-1.12,0.07-1.28-0.17
			c0.68-1.29,1.28-2.78,1.56-3.61c0.08-0.07,0.24-0.1,0.44-0.1l0.4,0.1c0.2,0.6,0.76,0.62,3.49,0.62h16.35
			c1.96,0,2.57-0.07,3.05-0.62l0.48-0.1c0.24,0,0.44,0.05,0.52,0.12c-0.4,0.98-0.73,3.04-0.6,3.81c-0.2,0.19-0.88,0.24-1.24,0.07
			c-0.52-1.87-1.28-2.32-5.57-2.32h-2.28c-1.04,0-1.08,0.05-1.08,1.05v10.35c0,2.54,0.36,2.61,2.24,2.73l1.44,0.1
			c0.28,0.17,0.24,0.6-0.08,0.69c-2.32-0.05-4.13-0.07-5.89-0.07c-1.76,0-3.65,0.02-6.22,0.07c-0.32-0.09-0.36-0.57-0.08-0.69
			l1.69-0.12c1.89-0.1,2.25-0.17,2.25-2.71V18.6z"/>
		<path class="st0" d="M157.76,20.62c-0.28,0.19-1,0.21-1.28,0.05c-0.68-1.51-2.49-3.5-7.78-3.5c-5.09,0-10.22,2.15-10.22,7.06
			c0,5.1,5.33,7.59,10.5,7.59c5.05,0,7.25-2.01,8.38-3.57c0.36-0.22,1-0.12,1.2,0.09c-0.28,1.6-1.36,3.19-1.92,3.64
			c-0.48,0.05-0.96,0.14-1.4,0.21c-0.88,0.17-3.65,0.57-6.25,0.57c-3.97,0-7.38-0.48-10.26-1.6c-3.25-1.27-5.69-3.45-5.69-6.59
			c0-2.8,2.08-4.98,5.05-6.35c2.97-1.34,7.02-2.04,11.06-2.04c2.29,0,5.05,0.24,6.93,0.53c0.48,0.07,0.76,0.09,1.12,0.14
			C157.27,17.43,157.35,18.85,157.76,20.62z"/>
		<path class="st0" d="M170.75,24.74c-2.04,0-2.16,0.05-2.16,0.69v3.52c0,2.54,0.36,2.61,2.24,2.73l1.2,0.1
			c0.28,0.17,0.24,0.6-0.08,0.69c-2.08-0.05-3.89-0.07-5.65-0.07c-1.76,0-3.57,0.02-5.09,0.07c-0.32-0.09-0.36-0.53-0.08-0.69
			l0.56-0.05c1.88-0.17,2.24-0.24,2.24-2.78v-8.91c0-2.54-0.36-2.61-2.24-2.75l-0.88-0.07c-0.28-0.12-0.24-0.6,0.08-0.69
			c1.76,0.05,3.65,0.07,5.41,0.07c1.76,0,3.57-0.02,5.13-0.07c0.32,0.1,0.36,0.57,0.08,0.69l-0.68,0.07
			c-1.88,0.14-2.24,0.22-2.24,2.75v2.9c0,0.67,0.12,0.72,2.16,0.72h9.38c2.04,0,2.16-0.05,2.16-0.72v-2.9
			c0-2.54-0.36-2.61-2.25-2.75l-0.88-0.07c-0.28-0.12-0.24-0.6,0.08-0.69c1.84,0.05,3.65,0.07,5.41,0.07c1.76,0,3.57-0.02,5.17-0.07
			c0.32,0.1,0.36,0.57,0.08,0.69l-0.72,0.07c-1.88,0.14-2.24,0.22-2.24,2.75v8.91c0,2.54,0.36,2.61,2.24,2.75l0.88,0.07
			c0.28,0.17,0.24,0.6-0.08,0.69c-1.76-0.05-3.57-0.07-5.33-0.07c-1.85,0-3.65,0.02-5.41,0.07c-0.32-0.09-0.36-0.53-0.08-0.69
			l0.88-0.07c1.89-0.14,2.25-0.21,2.25-2.75v-3.52c0-0.65-0.12-0.69-2.16-0.69H170.75z"/>
	</g>
	<g>
		<path class="st0" d="M49.15,39.25c0-1.62-0.02-1.89-0.74-2l-0.6-0.07c-0.12-0.13-0.12-0.43,0.02-0.5c1.2-0.14,2.23-0.16,3.79-0.16
			c1.63,0,2.81,0.25,3.58,0.71c0.89,0.55,1.46,1.5,1.46,2.68c0,2.71-2.49,3.46-3.84,3.46c-0.15,0-0.29,0-0.43-0.02
			c-0.12-0.11-0.14-0.34-0.05-0.45c1.56-0.32,2.13-1.5,2.13-2.96c0-1.45-0.89-2.71-2.45-2.71c-0.86,0-0.87,0.05-0.87,0.75v7.79
			c0,1.89,0.15,1.94,0.96,2.03l0.63,0.07c0.1,0.13,0.09,0.45-0.03,0.52c-1.01-0.04-1.78-0.05-2.54-0.05c-0.76,0-1.53,0.02-2.21,0.05
			c-0.14-0.07-0.15-0.39-0.03-0.52l0.27-0.04c0.81-0.13,0.96-0.18,0.96-2.07V39.25z"/>
		<path class="st0" d="M58.64,41.85c0-1.22-0.01-1.38-0.59-1.44l-0.32-0.04c-0.09-0.09-0.09-0.29,0.01-0.36
			c0.77-0.08,1.81-0.11,2.82-0.11c0.95,0,1.79,0.13,2.33,0.43c0.62,0.34,1.08,0.94,1.08,1.86c0,1.17-0.87,1.76-1.47,2.01
			c-0.07,0.04-0.05,0.14,0,0.22c0.98,1.72,1.59,2.8,2.17,3.3c0.34,0.31,0.7,0.38,0.84,0.39c0.06,0.05,0.06,0.19,0.02,0.25
			c-0.15,0.04-0.38,0.08-0.81,0.08c-1.18,0-1.81-0.5-2.56-1.68c-0.33-0.54-0.67-1.24-0.97-1.73c-0.22-0.38-0.35-0.43-0.76-0.43
			c-0.37,0-0.38,0.01-0.38,0.28v1.63c0,1.35,0.11,1.39,0.69,1.46l0.27,0.04c0.09,0.09,0.07,0.32-0.02,0.37
			c-0.54-0.03-1.09-0.04-1.63-0.04c-0.54,0-1.09,0.01-1.65,0.04c-0.1-0.05-0.14-0.28-0.03-0.37l0.27-0.04
			c0.58-0.08,0.68-0.11,0.68-1.46V41.85z M60.06,43.68c0,0.41,0,0.43,0.59,0.43c1.2,0,1.75-0.61,1.75-1.82
			c0-1.01-0.62-1.88-1.69-1.88c-0.64,0-0.65,0.04-0.65,0.62V43.68z"/>
		<path class="st0" d="M68.1,46.51c0,1.35,0.11,1.39,0.68,1.46l0.27,0.04c0.09,0.09,0.07,0.32-0.02,0.37
			c-0.54-0.03-1.09-0.04-1.63-0.04s-1.11,0.01-1.65,0.04c-0.1-0.05-0.11-0.28-0.02-0.37l0.27-0.04c0.58-0.08,0.69-0.11,0.69-1.46
			v-4.74c0-1.35-0.11-1.39-0.69-1.46l-0.27-0.04c-0.09-0.09-0.07-0.32,0.02-0.37c0.54,0.03,1.09,0.04,1.65,0.04
			c0.54,0,1.09-0.01,1.63-0.04c0.1,0.05,0.11,0.28,0.02,0.37l-0.27,0.04c-0.57,0.08-0.68,0.11-0.68,1.46V46.51z"/>
		<path class="st0" d="M77.74,46.18c0,0.38,0,1.95,0.04,2.24c-0.1,0.14-0.27,0.19-0.42,0.18c-0.2-0.27-0.55-0.7-1.43-1.74l-2.86-3.4
			c-0.79-0.93-1.19-1.41-1.4-1.6c-0.04,0-0.04,0.14-0.04,0.81v2.48c0,0.96,0.01,2.13,0.22,2.51c0.11,0.19,0.32,0.27,0.63,0.32
			l0.27,0.04c0.11,0.09,0.1,0.33-0.02,0.37c-0.45-0.03-0.93-0.04-1.4-0.04c-0.51,0-0.85,0.01-1.27,0.04
			c-0.1-0.06-0.12-0.28-0.02-0.37l0.27-0.06c0.23-0.04,0.45-0.09,0.54-0.29C71,47.26,71,46.15,71,45.15v-3.02
			c0-0.99,0.01-1.2-0.4-1.57c-0.13-0.11-0.48-0.22-0.65-0.25l-0.18-0.04c-0.09-0.08-0.07-0.33,0.05-0.37
			c0.47,0.05,1.14,0.04,1.44,0.04c0.26,0,0.55-0.01,0.84-0.04c0.21,0.55,1.54,2.15,1.97,2.64l1.22,1.37
			c0.51,0.59,1.65,1.94,1.78,2.01c0.04-0.04,0.04-0.1,0.04-0.31v-2.48c0-0.96-0.01-2.13-0.23-2.51c-0.11-0.19-0.31-0.27-0.61-0.32
			l-0.28-0.04c-0.11-0.09-0.1-0.33,0.02-0.37c0.48,0.03,0.93,0.04,1.41,0.04c0.53,0,0.84-0.01,1.29-0.04
			c0.1,0.06,0.12,0.28,0.02,0.37l-0.28,0.06c-0.23,0.04-0.44,0.09-0.53,0.29c-0.17,0.39-0.17,1.5-0.17,2.51V46.18z"/>
		<path class="st0" d="M82.61,41.01c0-0.53-0.01-0.56-0.33-0.56h-0.69c-1.13,0-1.46,0.14-1.91,1.17c-0.09,0.08-0.34,0.04-0.39-0.09
			c0.21-0.69,0.39-1.48,0.48-1.92c0.02-0.04,0.07-0.05,0.13-0.05l0.12,0.05c0.06,0.32,0.23,0.33,1.06,0.33h4.99
			c0.6,0,0.78-0.04,0.93-0.33l0.15-0.05c0.07,0,0.13,0.03,0.16,0.06c-0.12,0.52-0.22,1.62-0.18,2.02c-0.06,0.1-0.27,0.13-0.38,0.04
			c-0.16-0.99-0.39-1.23-1.7-1.23h-0.7c-0.32,0-0.33,0.03-0.33,0.56v5.5c0,1.35,0.11,1.39,0.69,1.45l0.44,0.05
			c0.09,0.09,0.07,0.32-0.02,0.37c-0.71-0.03-1.26-0.04-1.8-0.04c-0.54,0-1.11,0.01-1.9,0.04c-0.1-0.05-0.11-0.31-0.02-0.37
			l0.51-0.06c0.58-0.05,0.69-0.09,0.69-1.44V41.01z"/>
		<path class="st0" d="M90.34,46.51c0,1.35,0.11,1.39,0.69,1.46l0.27,0.04c0.09,0.09,0.07,0.32-0.02,0.37
			c-0.54-0.03-1.09-0.04-1.63-0.04c-0.54,0-1.12,0.01-1.65,0.04c-0.1-0.05-0.11-0.28-0.02-0.37l0.27-0.04
			c0.58-0.08,0.69-0.11,0.69-1.46v-4.74c0-1.35-0.11-1.39-0.69-1.46l-0.27-0.04c-0.09-0.09-0.07-0.32,0.02-0.37
			c0.54,0.03,1.09,0.04,1.65,0.04c0.54,0,1.09-0.01,1.63-0.04c0.1,0.05,0.11,0.28,0.02,0.37l-0.27,0.04
			c-0.57,0.08-0.69,0.11-0.69,1.46V46.51z"/>
		<path class="st0" d="M99.98,46.18c0,0.38,0,1.95,0.04,2.24c-0.1,0.14-0.27,0.19-0.42,0.18c-0.2-0.27-0.55-0.7-1.43-1.74l-2.87-3.4
			c-0.8-0.93-1.19-1.41-1.39-1.6c-0.04,0-0.04,0.14-0.04,0.81v2.48c0,0.96,0.01,2.13,0.22,2.51c0.11,0.19,0.32,0.27,0.62,0.32
			l0.27,0.04c0.11,0.09,0.1,0.33-0.02,0.37c-0.45-0.03-0.93-0.04-1.4-0.04c-0.51,0-0.84,0.01-1.27,0.04
			c-0.1-0.06-0.12-0.28-0.02-0.37l0.27-0.06c0.23-0.04,0.45-0.09,0.54-0.29c0.16-0.39,0.16-1.5,0.16-2.51v-3.02
			c0-0.99,0.01-1.2-0.4-1.57c-0.13-0.11-0.48-0.22-0.65-0.25L92,40.27c-0.09-0.08-0.07-0.33,0.05-0.37
			c0.46,0.05,1.14,0.04,1.44,0.04c0.26,0,0.55-0.01,0.85-0.04c0.21,0.55,1.54,2.15,1.97,2.64l1.22,1.37
			c0.51,0.59,1.65,1.94,1.78,2.01c0.04-0.04,0.04-0.1,0.04-0.31v-2.48c0-0.96-0.01-2.13-0.23-2.51c-0.11-0.19-0.31-0.27-0.61-0.32
			l-0.28-0.04c-0.11-0.09-0.1-0.33,0.02-0.37c0.48,0.03,0.93,0.04,1.41,0.04c0.53,0,0.85-0.01,1.29-0.04
			c0.1,0.06,0.12,0.28,0.02,0.37l-0.28,0.06c-0.23,0.04-0.44,0.09-0.53,0.29c-0.17,0.39-0.17,1.5-0.17,2.51V46.18z"/>
		<path class="st0" d="M109.39,47.02c0,0.45,0.06,0.78,0.29,0.89l-0.01,0.19c-0.13,0-0.35,0.04-0.59,0.1
			c-0.76,0.18-1.68,0.34-2.38,0.34c-1.47,0-2.85-0.41-3.77-1.4c-0.72-0.78-1.08-1.85-1.08-2.92c0-1.07,0.35-2.16,1.13-2.99
			c0.87-0.95,2.2-1.5,3.9-1.5c0.58,0,1.2,0.1,1.63,0.19c0.28,0.06,0.64,0.11,0.78,0.11c0.01,0.38,0.1,1.03,0.16,2.02
			c-0.06,0.13-0.33,0.14-0.39,0.02c-0.27-1.23-1.14-1.85-2.35-1.85c-2.16,0-3.2,1.62-3.2,3.78c0,1.02,0.22,2.11,0.88,2.93
			c0.66,0.82,1.64,1.08,2.36,1.08c0.59,0,0.94-0.1,1.09-0.29c0.07-0.12,0.11-0.34,0.11-0.8v-0.46c0-0.9-0.01-0.98-0.83-1.12
			l-0.44-0.08c-0.09-0.09-0.09-0.3,0.01-0.37c0.48,0.02,1.07,0.04,1.91,0.04c0.55,0,0.97-0.01,1.49-0.04
			c0.12,0.06,0.13,0.28,0.02,0.37l-0.22,0.04c-0.45,0.06-0.53,0.18-0.53,0.96V47.02z"/>
		<path class="st0" d="M49.15,39.25c0-1.62-0.02-1.89-0.74-2l-0.6-0.07c-0.12-0.13-0.12-0.43,0.02-0.5c1.2-0.14,2.23-0.16,3.79-0.16
			c1.63,0,2.81,0.25,3.58,0.71c0.89,0.55,1.46,1.5,1.46,2.68c0,2.71-2.49,3.46-3.84,3.46c-0.15,0-0.29,0-0.43-0.02
			c-0.12-0.11-0.14-0.34-0.05-0.45c1.56-0.32,2.13-1.5,2.13-2.96c0-1.45-0.89-2.71-2.45-2.71c-0.86,0-0.87,0.05-0.87,0.75v7.79
			c0,1.89,0.15,1.94,0.96,2.03l0.63,0.07c0.1,0.13,0.09,0.45-0.03,0.52c-1.01-0.04-1.78-0.05-2.54-0.05c-0.76,0-1.53,0.02-2.21,0.05
			c-0.14-0.07-0.15-0.39-0.03-0.52l0.27-0.04c0.81-0.13,0.96-0.18,0.96-2.07V39.25z"/>
		<path class="st0" d="M58.64,41.85c0-1.22-0.01-1.38-0.59-1.44l-0.32-0.04c-0.09-0.09-0.09-0.29,0.01-0.36
			c0.77-0.08,1.81-0.11,2.82-0.11c0.95,0,1.79,0.13,2.33,0.43c0.62,0.34,1.08,0.94,1.08,1.86c0,1.17-0.87,1.76-1.47,2.01
			c-0.07,0.04-0.05,0.14,0,0.22c0.98,1.72,1.59,2.8,2.17,3.3c0.34,0.31,0.7,0.38,0.84,0.39c0.06,0.05,0.06,0.19,0.02,0.25
			c-0.15,0.04-0.38,0.08-0.81,0.08c-1.18,0-1.81-0.5-2.56-1.68c-0.33-0.54-0.67-1.24-0.97-1.73c-0.22-0.38-0.35-0.43-0.76-0.43
			c-0.37,0-0.38,0.01-0.38,0.28v1.63c0,1.35,0.11,1.39,0.69,1.46l0.27,0.04c0.09,0.09,0.07,0.32-0.02,0.37
			c-0.54-0.03-1.09-0.04-1.63-0.04c-0.54,0-1.09,0.01-1.65,0.04c-0.1-0.05-0.14-0.28-0.03-0.37l0.27-0.04
			c0.58-0.08,0.68-0.11,0.68-1.46V41.85z M60.06,43.68c0,0.41,0,0.43,0.59,0.43c1.2,0,1.75-0.61,1.75-1.82
			c0-1.01-0.62-1.88-1.69-1.88c-0.64,0-0.65,0.04-0.65,0.62V43.68z"/>
		<path class="st0" d="M68.1,46.51c0,1.35,0.11,1.39,0.68,1.46l0.27,0.04c0.09,0.09,0.07,0.32-0.02,0.37
			c-0.54-0.03-1.09-0.04-1.63-0.04s-1.11,0.01-1.65,0.04c-0.1-0.05-0.11-0.28-0.02-0.37l0.27-0.04c0.58-0.08,0.69-0.11,0.69-1.46
			v-4.74c0-1.35-0.11-1.39-0.69-1.46l-0.27-0.04c-0.09-0.09-0.07-0.32,0.02-0.37c0.54,0.03,1.09,0.04,1.65,0.04
			c0.54,0,1.09-0.01,1.63-0.04c0.1,0.05,0.11,0.28,0.02,0.37l-0.27,0.04c-0.57,0.08-0.68,0.11-0.68,1.46V46.51z"/>
		<path class="st0" d="M77.74,46.18c0,0.38,0,1.95,0.04,2.24c-0.1,0.14-0.27,0.19-0.42,0.18c-0.2-0.27-0.55-0.7-1.43-1.74l-2.86-3.4
			c-0.79-0.93-1.19-1.41-1.4-1.6c-0.04,0-0.04,0.14-0.04,0.81v2.48c0,0.96,0.01,2.13,0.22,2.51c0.11,0.19,0.32,0.27,0.63,0.32
			l0.27,0.04c0.11,0.09,0.1,0.33-0.02,0.37c-0.45-0.03-0.93-0.04-1.4-0.04c-0.51,0-0.85,0.01-1.27,0.04
			c-0.1-0.06-0.12-0.28-0.02-0.37l0.27-0.06c0.23-0.04,0.45-0.09,0.54-0.29C71,47.26,71,46.15,71,45.15v-3.02
			c0-0.99,0.01-1.2-0.4-1.57c-0.13-0.11-0.48-0.22-0.65-0.25l-0.18-0.04c-0.09-0.08-0.07-0.33,0.05-0.37
			c0.47,0.05,1.14,0.04,1.44,0.04c0.26,0,0.55-0.01,0.84-0.04c0.21,0.55,1.54,2.15,1.97,2.64l1.22,1.37
			c0.51,0.59,1.65,1.94,1.78,2.01c0.04-0.04,0.04-0.1,0.04-0.31v-2.48c0-0.96-0.01-2.13-0.23-2.51c-0.11-0.19-0.31-0.27-0.61-0.32
			l-0.28-0.04c-0.11-0.09-0.1-0.33,0.02-0.37c0.48,0.03,0.93,0.04,1.41,0.04c0.53,0,0.84-0.01,1.29-0.04
			c0.1,0.06,0.12,0.28,0.02,0.37l-0.28,0.06c-0.23,0.04-0.44,0.09-0.53,0.29c-0.17,0.39-0.17,1.5-0.17,2.51V46.18z"/>
		<path class="st0" d="M90.34,46.51c0,1.35,0.11,1.39,0.69,1.46l0.27,0.04c0.09,0.09,0.07,0.32-0.02,0.37
			c-0.54-0.03-1.09-0.04-1.63-0.04c-0.54,0-1.12,0.01-1.65,0.04c-0.1-0.05-0.11-0.28-0.02-0.37l0.27-0.04
			c0.58-0.08,0.69-0.11,0.69-1.46v-4.74c0-1.35-0.11-1.39-0.69-1.46l-0.27-0.04c-0.09-0.09-0.07-0.32,0.02-0.37
			c0.54,0.03,1.09,0.04,1.65,0.04c0.54,0,1.09-0.01,1.63-0.04c0.1,0.05,0.11,0.28,0.02,0.37l-0.27,0.04
			c-0.57,0.08-0.69,0.11-0.69,1.46V46.51z"/>
		<path class="st0" d="M99.98,46.18c0,0.38,0,1.95,0.04,2.24c-0.1,0.14-0.27,0.19-0.42,0.18c-0.2-0.27-0.55-0.7-1.43-1.74l-2.87-3.4
			c-0.8-0.93-1.19-1.41-1.39-1.6c-0.04,0-0.04,0.14-0.04,0.81v2.48c0,0.96,0.01,2.13,0.22,2.51c0.11,0.19,0.32,0.27,0.62,0.32
			l0.27,0.04c0.11,0.09,0.1,0.33-0.02,0.37c-0.45-0.03-0.93-0.04-1.4-0.04c-0.51,0-0.84,0.01-1.27,0.04
			c-0.1-0.06-0.12-0.28-0.02-0.37l0.27-0.06c0.23-0.04,0.45-0.09,0.54-0.29c0.16-0.39,0.16-1.5,0.16-2.51v-3.02
			c0-0.99,0.01-1.2-0.4-1.57c-0.13-0.11-0.48-0.22-0.65-0.25L92,40.27c-0.09-0.08-0.07-0.33,0.05-0.37
			c0.46,0.05,1.14,0.04,1.44,0.04c0.26,0,0.55-0.01,0.85-0.04c0.21,0.55,1.54,2.15,1.97,2.64l1.22,1.37
			c0.51,0.59,1.65,1.94,1.78,2.01c0.04-0.04,0.04-0.1,0.04-0.31v-2.48c0-0.96-0.01-2.13-0.23-2.51c-0.11-0.19-0.31-0.27-0.61-0.32
			l-0.28-0.04c-0.11-0.09-0.1-0.33,0.02-0.37c0.48,0.03,0.93,0.04,1.41,0.04c0.53,0,0.85-0.01,1.29-0.04
			c0.1,0.06,0.12,0.28,0.02,0.37l-0.28,0.06c-0.23,0.04-0.44,0.09-0.53,0.29c-0.17,0.39-0.17,1.5-0.17,2.51V46.18z"/>
		<path class="st0" d="M109.39,47.02c0,0.45,0.06,0.78,0.29,0.89l-0.01,0.19c-0.13,0-0.35,0.04-0.59,0.1
			c-0.76,0.18-1.68,0.34-2.38,0.34c-1.47,0-2.85-0.41-3.77-1.4c-0.72-0.78-1.08-1.85-1.08-2.92c0-1.07,0.35-2.16,1.13-2.99
			c0.87-0.95,2.2-1.5,3.9-1.5c0.58,0,1.2,0.1,1.63,0.19c0.28,0.06,0.64,0.11,0.78,0.11c0.01,0.38,0.1,1.03,0.16,2.02
			c-0.06,0.13-0.33,0.14-0.39,0.02c-0.27-1.23-1.14-1.85-2.35-1.85c-2.16,0-3.2,1.62-3.2,3.78c0,1.02,0.22,2.11,0.88,2.93
			c0.66,0.82,1.64,1.08,2.36,1.08c0.59,0,0.94-0.1,1.09-0.29c0.07-0.12,0.11-0.34,0.11-0.8v-0.46c0-0.9-0.01-0.98-0.83-1.12
			l-0.44-0.08c-0.09-0.09-0.09-0.3,0.01-0.37c0.48,0.02,1.07,0.04,1.91,0.04c0.55,0,0.97-0.01,1.49-0.04
			c0.12,0.06,0.13,0.28,0.02,0.37l-0.22,0.04c-0.45,0.06-0.53,0.18-0.53,0.96V47.02z"/>
		<path class="st0" d="M122.71,40.16c0,1.55-1.19,2.04-1.87,2.46c1.53,1.03,2.28,1.98,3.33,3.67c0.63-0.89,1.33-2.29,1.9-3.61
			c0.34-0.78,0.42-0.99-0.14-1.09l-0.58-0.1c-0.18-0.19-0.14-0.5,0.06-0.58h1.09c1.01,0,2.88-0.08,3.33-0.12
			c0.14,0.08,0.2,0.41,0.04,0.58l-0.91,0.21c-1.03,0.23-1.45,0.83-2.12,2.02c-0.48,0.83-1.19,1.94-2.06,3.24
			c-0.12,0.19-0.1,0.37,0.04,0.6c0.83,1.36,1.75,2.21,3.16,2.21c0.56,0,1.19-0.25,1.61-0.56c0.2,0.02,0.34,0.23,0.28,0.43
			c-0.97,1.09-2.4,1.49-3.39,1.49c-0.93,0-1.94-0.27-2.32-0.66c-0.28-0.29-0.69-0.93-0.95-1.36c-1.31,1.38-2.58,2.02-4.11,2.02
			c-2.86,0-3.97-2.04-4.01-3.69c0.04-2.15,1.55-3.36,3.04-4.17c-0.3-0.27-1.39-1.09-1.39-2.54c0-1.86,1.45-3.1,3.1-3.1
			C121.6,37.5,122.71,38.74,122.71,40.16z M118.82,43.69c-0.1,0-0.3,0.12-0.46,0.25c-0.67,0.49-1.21,1.55-1.21,2.58
			c0,1.73,1.39,2.95,3.12,2.95c0.87,0,1.69-0.37,2.3-0.95c0.3-0.27,0.3-0.39,0.06-0.78c-0.48-0.78-1.03-1.57-1.61-2.23
			C120.09,44.44,118.92,43.69,118.82,43.69z M118.49,39.83c0,0.87,0.48,1.49,1.35,2.15c0.12,0.08,0.28,0.19,0.32,0.19
			c0.06,0,0.16-0.08,0.2-0.1c0.38-0.43,0.65-1.11,0.65-1.98c0-1.07-0.5-1.84-1.25-1.84C119.06,38.25,118.49,38.89,118.49,39.83z"/>
		<path class="st0" d="M148.42,47.99c0.17,0.07,0.16,0.45-0.03,0.52c-0.74-0.04-1.41-0.05-2.09-0.05c-0.81,0-1.54,0.02-2.3,0.05
			c-0.14-0.07-0.21-0.41-0.03-0.52l0.46-0.09c0.69-0.11,0.74-0.25,0.74-1.46V40.8v-1.66h-0.03c-0.46,0.98-0.7,1.52-1.03,2.23
			l-1.47,3.14c-0.58,1.25-1.44,3.23-1.75,4.07c-0.07,0.07-0.33,0.07-0.45,0c-0.29-0.96-1.03-2.71-1.42-3.6l-1.53-3.42
			c-0.33-0.75-0.79-1.87-1-2.41h-0.03c-0.03,0.87-0.07,2.26-0.1,3.01c-0.03,1.09-0.07,2.68-0.07,4.14c0,1.18,0.02,1.46,0.76,1.59
			l0.57,0.11c0.12,0.11,0.12,0.45-0.02,0.52c-0.64-0.04-1.17-0.05-1.8-0.05c-0.55,0-1.17,0.02-1.84,0.05
			c-0.15-0.09-0.15-0.43-0.05-0.52l0.29-0.03c0.82-0.11,0.96-0.37,1.06-1.46c0.14-1.12,0.17-2.28,0.26-4.14
			c0.07-1.21,0.17-2.69,0.17-3.78c0-0.84-0.26-1.21-0.93-1.32l-0.58-0.11c-0.1-0.13-0.09-0.46,0.07-0.52
			c0.51,0.04,0.98,0.05,1.61,0.05c0.6,0,1.2,0,1.83-0.05c0.07,1.07,0.51,2,0.94,2.96l1.89,4.12c0.14,0.3,0.58,1.19,0.81,1.61
			c0.28-0.52,0.52-1.02,0.89-1.85l1.61-3.42c0.55-1.18,1.1-2.23,1.39-3.41c0.46,0.04,1.03,0.05,1.41,0.05c0.72,0,1.32-0.02,1.8-0.05
			c0.19,0.07,0.22,0.41,0.05,0.52l-0.57,0.09c-0.76,0.11-0.93,0.41-0.93,1.35c0,2.64,0.03,5.28,0.15,7.92
			c0.05,1.2,0.24,1.32,0.79,1.39L148.42,47.99z"/>
		<path class="st0" d="M151.74,45.33c-0.32,0-0.31,0-0.42,0.34l-0.5,1.53c-0.24,0.75-0.2,0.79,0.26,0.85l0.35,0.06
			c0.08,0.09,0.07,0.32-0.02,0.37c-0.39-0.02-0.8-0.02-1.3-0.04c-0.4,0-0.78,0.01-1.21,0.04c-0.09-0.06-0.1-0.25-0.01-0.37
			l0.37-0.06c0.35-0.05,0.49-0.17,0.67-0.59c0.15-0.33,0.34-0.87,0.6-1.55l1.68-4.53c0.16-0.41,0.27-0.71,0.23-0.93
			c0.43-0.09,0.83-0.61,0.86-0.61c0.1,0,0.16,0.04,0.21,0.1c0.2,0.57,0.36,1.17,0.55,1.75l1.76,5.33c0.28,0.85,0.34,0.94,0.97,1.06
			l0.18,0.04c0.1,0.09,0.1,0.31,0.01,0.37c-0.5-0.02-0.96-0.04-1.59-0.04c-0.53,0-1.07,0.03-1.49,0.04
			c-0.1-0.06-0.11-0.29-0.04-0.37l0.27-0.04c0.44-0.05,0.48-0.13,0.32-0.67l-0.58-1.73c-0.12-0.34-0.16-0.34-0.5-0.34H151.74z
			 M153.21,44.76c0.34,0,0.39-0.02,0.29-0.33l-0.51-1.53c-0.21-0.67-0.28-0.92-0.34-1.01h-0.02c-0.05,0.09-0.15,0.41-0.37,1.01
			l-0.51,1.49c-0.14,0.37-0.1,0.37,0.2,0.37H153.21z"/>
		<path class="st0" d="M159.75,46.62c0,1.35,0.11,1.39,0.69,1.46l0.27,0.04c0.09,0.09,0.07,0.32-0.02,0.37
			c-0.54-0.02-1.09-0.04-1.63-0.04c-0.54,0-1.11,0.01-1.65,0.04c-0.1-0.05-0.11-0.28-0.02-0.37l0.27-0.04
			c0.58-0.08,0.69-0.12,0.69-1.46v-4.74c0-1.35-0.11-1.39-0.69-1.46l-0.27-0.04c-0.09-0.09-0.07-0.32,0.02-0.37
			c0.54,0.03,1.09,0.04,1.65,0.04c0.54,0,1.09-0.01,1.63-0.04c0.1,0.05,0.11,0.28,0.02,0.37l-0.27,0.04
			c-0.58,0.08-0.69,0.11-0.69,1.46V46.62z"/>
		<path class="st0" d="M164.08,46.35c0,0.64,0.02,1.09,0.21,1.31c0.15,0.18,0.34,0.28,1.32,0.28c1.36,0,1.56-0.06,2.12-1.38
			c0.12-0.06,0.32-0.03,0.38,0.08c-0.1,0.53-0.37,1.5-0.51,1.85c-0.51-0.02-1.57-0.04-2.94-0.04h-1.27c-0.63,0-1.24,0.01-1.75,0.04
			c-0.1-0.05-0.13-0.31-0.02-0.37l0.37-0.06c0.58-0.08,0.69-0.11,0.69-1.44v-4.74c0-1.32-0.11-1.36-0.69-1.45l-0.34-0.05
			c-0.09-0.06-0.09-0.32,0.02-0.37c0.61,0.03,1.16,0.04,1.73,0.04c0.54,0,1.09-0.01,1.63-0.04c0.11,0.05,0.12,0.31,0.02,0.37
			l-0.27,0.05c-0.58,0.09-0.69,0.13-0.69,1.45V46.35z"/>
		<path class="st0" d="M170.94,46.62c0,1.35,0.11,1.39,0.69,1.46l0.27,0.04c0.09,0.09,0.07,0.32-0.02,0.37
			c-0.54-0.02-1.09-0.04-1.63-0.04c-0.54,0-1.11,0.01-1.65,0.04c-0.1-0.05-0.11-0.28-0.02-0.37l0.27-0.04
			c0.58-0.08,0.69-0.12,0.69-1.46v-4.74c0-1.35-0.11-1.39-0.69-1.46l-0.27-0.04c-0.09-0.09-0.07-0.32,0.02-0.37
			c0.54,0.03,1.09,0.04,1.65,0.04c0.54,0,1.09-0.01,1.63-0.04c0.1,0.05,0.11,0.28,0.02,0.37l-0.27,0.04
			c-0.58,0.08-0.69,0.11-0.69,1.46V46.62z"/>
		<path class="st0" d="M180.59,46.29c0,0.38,0,1.95,0.04,2.24c-0.1,0.14-0.27,0.19-0.42,0.18c-0.2-0.27-0.55-0.7-1.43-1.74
			l-2.86-3.4c-0.8-0.93-1.19-1.41-1.4-1.6c-0.04,0-0.04,0.14-0.04,0.81v2.48c0,0.96,0.01,2.13,0.22,2.51
			c0.11,0.19,0.32,0.27,0.62,0.32l0.27,0.04c0.11,0.09,0.1,0.33-0.02,0.37c-0.45-0.02-0.93-0.04-1.4-0.04
			c-0.51,0-0.84,0.01-1.27,0.04c-0.1-0.06-0.12-0.28-0.02-0.37l0.27-0.06c0.23-0.04,0.45-0.09,0.54-0.29
			c0.16-0.39,0.16-1.5,0.16-2.51v-3.02c0-0.99,0.01-1.2-0.4-1.57c-0.13-0.11-0.48-0.22-0.65-0.25l-0.18-0.04
			c-0.09-0.08-0.07-0.33,0.05-0.37c0.47,0.05,1.14,0.04,1.45,0.04c0.26,0,0.55-0.01,0.84-0.04c0.21,0.55,1.54,2.15,1.97,2.64
			l1.22,1.38c0.51,0.58,1.65,1.93,1.78,2.01c0.04-0.04,0.04-0.1,0.04-0.31v-2.48c0-0.95-0.01-2.13-0.23-2.51
			c-0.11-0.19-0.31-0.27-0.61-0.32l-0.28-0.04c-0.11-0.09-0.1-0.33,0.02-0.37c0.48,0.03,0.93,0.04,1.41,0.04
			c0.53,0,0.84-0.01,1.29-0.04c0.1,0.06,0.12,0.28,0.02,0.37l-0.28,0.06c-0.23,0.04-0.44,0.09-0.53,0.29
			c-0.17,0.39-0.17,1.5-0.17,2.51V46.29z"/>
		<path class="st0" d="M189.99,47.13c0,0.45,0.06,0.78,0.29,0.89l-0.01,0.19c-0.13,0-0.36,0.04-0.59,0.1
			c-0.76,0.18-1.68,0.34-2.37,0.34c-1.47,0-2.85-0.41-3.77-1.4c-0.72-0.78-1.08-1.85-1.08-2.92c0-1.07,0.36-2.16,1.13-2.99
			c0.87-0.95,2.2-1.5,3.91-1.5c0.58,0,1.2,0.1,1.63,0.19c0.28,0.06,0.64,0.11,0.78,0.11c0.01,0.38,0.1,1.03,0.16,2.02
			c-0.06,0.13-0.33,0.14-0.39,0.02c-0.27-1.23-1.14-1.85-2.35-1.85c-2.15,0-3.2,1.62-3.2,3.78c0,1.02,0.22,2.11,0.88,2.93
			c0.66,0.81,1.64,1.08,2.36,1.08c0.59,0,0.94-0.1,1.09-0.29c0.07-0.11,0.11-0.34,0.11-0.8v-0.46c0-0.9-0.01-0.98-0.83-1.12
			l-0.44-0.08c-0.09-0.09-0.09-0.3,0.01-0.37c0.48,0.02,1.06,0.04,1.91,0.04c0.55,0,0.97-0.01,1.49-0.04
			c0.12,0.06,0.13,0.28,0.02,0.37l-0.22,0.04c-0.45,0.06-0.53,0.18-0.53,0.95V47.13z"/>
		<path class="st0" d="M148.42,47.99c0.17,0.07,0.16,0.45-0.03,0.52c-0.74-0.04-1.41-0.05-2.09-0.05c-0.81,0-1.54,0.02-2.3,0.05
			c-0.14-0.07-0.21-0.41-0.03-0.52l0.46-0.09c0.69-0.11,0.74-0.25,0.74-1.46V40.8v-1.66h-0.03c-0.46,0.98-0.7,1.52-1.03,2.23
			l-1.47,3.14c-0.58,1.25-1.44,3.23-1.75,4.07c-0.07,0.07-0.33,0.07-0.45,0c-0.29-0.96-1.03-2.71-1.42-3.6l-1.53-3.42
			c-0.33-0.75-0.79-1.87-1-2.41h-0.03c-0.03,0.87-0.07,2.26-0.1,3.01c-0.03,1.09-0.07,2.68-0.07,4.14c0,1.18,0.02,1.46,0.76,1.59
			l0.57,0.11c0.12,0.11,0.12,0.45-0.02,0.52c-0.64-0.04-1.17-0.05-1.8-0.05c-0.55,0-1.17,0.02-1.84,0.05
			c-0.15-0.09-0.15-0.43-0.05-0.52l0.29-0.03c0.82-0.11,0.96-0.37,1.06-1.46c0.14-1.12,0.17-2.28,0.26-4.14
			c0.07-1.21,0.17-2.69,0.17-3.78c0-0.84-0.26-1.21-0.93-1.32l-0.58-0.11c-0.1-0.13-0.09-0.46,0.07-0.52
			c0.51,0.04,0.98,0.05,1.61,0.05c0.6,0,1.2,0,1.83-0.05c0.07,1.07,0.51,2,0.94,2.96l1.89,4.12c0.14,0.3,0.58,1.19,0.81,1.61
			c0.28-0.52,0.52-1.02,0.89-1.85l1.61-3.42c0.55-1.18,1.1-2.23,1.39-3.41c0.46,0.04,1.03,0.05,1.41,0.05c0.72,0,1.32-0.02,1.8-0.05
			c0.19,0.07,0.22,0.41,0.05,0.52l-0.57,0.09c-0.76,0.11-0.93,0.41-0.93,1.35c0,2.64,0.03,5.28,0.15,7.92
			c0.05,1.2,0.24,1.32,0.79,1.39L148.42,47.99z"/>
		<path class="st0" d="M151.74,45.33c-0.32,0-0.31,0-0.42,0.34l-0.5,1.53c-0.24,0.75-0.2,0.79,0.26,0.85l0.35,0.06
			c0.08,0.09,0.07,0.32-0.02,0.37c-0.39-0.02-0.8-0.02-1.3-0.04c-0.4,0-0.78,0.01-1.21,0.04c-0.09-0.06-0.1-0.25-0.01-0.37
			l0.37-0.06c0.35-0.05,0.49-0.17,0.67-0.59c0.15-0.33,0.34-0.87,0.6-1.55l1.68-4.53c0.16-0.41,0.27-0.71,0.23-0.93
			c0.43-0.09,0.83-0.61,0.86-0.61c0.1,0,0.16,0.04,0.21,0.1c0.2,0.57,0.36,1.17,0.55,1.75l1.76,5.33c0.28,0.85,0.34,0.94,0.97,1.06
			l0.18,0.04c0.1,0.09,0.1,0.31,0.01,0.37c-0.5-0.02-0.96-0.04-1.59-0.04c-0.53,0-1.07,0.03-1.49,0.04
			c-0.1-0.06-0.11-0.29-0.04-0.37l0.27-0.04c0.44-0.05,0.48-0.13,0.32-0.67l-0.58-1.73c-0.12-0.34-0.16-0.34-0.5-0.34H151.74z
			 M153.21,44.76c0.34,0,0.39-0.02,0.29-0.33l-0.51-1.53c-0.21-0.67-0.28-0.92-0.34-1.01h-0.02c-0.05,0.09-0.15,0.41-0.37,1.01
			l-0.51,1.49c-0.14,0.37-0.1,0.37,0.2,0.37H153.21z"/>
		<path class="st0" d="M159.75,46.62c0,1.35,0.11,1.39,0.69,1.46l0.27,0.04c0.09,0.09,0.07,0.32-0.02,0.37
			c-0.54-0.02-1.09-0.04-1.63-0.04c-0.54,0-1.11,0.01-1.65,0.04c-0.1-0.05-0.11-0.28-0.02-0.37l0.27-0.04
			c0.58-0.08,0.69-0.12,0.69-1.46v-4.74c0-1.35-0.11-1.39-0.69-1.46l-0.27-0.04c-0.09-0.09-0.07-0.32,0.02-0.37
			c0.54,0.03,1.09,0.04,1.65,0.04c0.54,0,1.09-0.01,1.63-0.04c0.1,0.05,0.11,0.28,0.02,0.37l-0.27,0.04
			c-0.58,0.08-0.69,0.11-0.69,1.46V46.62z"/>
		<path class="st0" d="M164.08,46.35c0,0.64,0.02,1.09,0.21,1.31c0.15,0.18,0.34,0.28,1.32,0.28c1.36,0,1.56-0.06,2.12-1.38
			c0.12-0.06,0.32-0.03,0.38,0.08c-0.1,0.53-0.37,1.5-0.51,1.85c-0.51-0.02-1.57-0.04-2.94-0.04h-1.27c-0.63,0-1.24,0.01-1.75,0.04
			c-0.1-0.05-0.13-0.31-0.02-0.37l0.37-0.06c0.58-0.08,0.69-0.11,0.69-1.44v-4.74c0-1.32-0.11-1.36-0.69-1.45l-0.34-0.05
			c-0.09-0.06-0.09-0.32,0.02-0.37c0.61,0.03,1.16,0.04,1.73,0.04c0.54,0,1.09-0.01,1.63-0.04c0.11,0.05,0.12,0.31,0.02,0.37
			l-0.27,0.05c-0.58,0.09-0.69,0.13-0.69,1.45V46.35z"/>
		<path class="st0" d="M170.94,46.62c0,1.35,0.11,1.39,0.69,1.46l0.27,0.04c0.09,0.09,0.07,0.32-0.02,0.37
			c-0.54-0.02-1.09-0.04-1.63-0.04c-0.54,0-1.11,0.01-1.65,0.04c-0.1-0.05-0.11-0.28-0.02-0.37l0.27-0.04
			c0.58-0.08,0.69-0.12,0.69-1.46v-4.74c0-1.35-0.11-1.39-0.69-1.46l-0.27-0.04c-0.09-0.09-0.07-0.32,0.02-0.37
			c0.54,0.03,1.09,0.04,1.65,0.04c0.54,0,1.09-0.01,1.63-0.04c0.1,0.05,0.11,0.28,0.02,0.37l-0.27,0.04
			c-0.58,0.08-0.69,0.11-0.69,1.46V46.62z"/>
		<path class="st0" d="M180.59,46.29c0,0.38,0,1.95,0.04,2.24c-0.1,0.14-0.27,0.19-0.42,0.18c-0.2-0.27-0.55-0.7-1.43-1.74
			l-2.86-3.4c-0.8-0.93-1.19-1.41-1.4-1.6c-0.04,0-0.04,0.14-0.04,0.81v2.48c0,0.96,0.01,2.13,0.22,2.51
			c0.11,0.19,0.32,0.27,0.62,0.32l0.27,0.04c0.11,0.09,0.1,0.33-0.02,0.37c-0.45-0.02-0.93-0.04-1.4-0.04
			c-0.51,0-0.84,0.01-1.27,0.04c-0.1-0.06-0.12-0.28-0.02-0.37l0.27-0.06c0.23-0.04,0.45-0.09,0.54-0.29
			c0.16-0.39,0.16-1.5,0.16-2.51v-3.02c0-0.99,0.01-1.2-0.4-1.57c-0.13-0.11-0.48-0.22-0.65-0.25l-0.18-0.04
			c-0.09-0.08-0.07-0.33,0.05-0.37c0.47,0.05,1.14,0.04,1.45,0.04c0.26,0,0.55-0.01,0.84-0.04c0.21,0.55,1.54,2.15,1.97,2.64
			l1.22,1.38c0.51,0.58,1.65,1.93,1.78,2.01c0.04-0.04,0.04-0.1,0.04-0.31v-2.48c0-0.95-0.01-2.13-0.23-2.51
			c-0.11-0.19-0.31-0.27-0.61-0.32l-0.28-0.04c-0.11-0.09-0.1-0.33,0.02-0.37c0.48,0.03,0.93,0.04,1.41,0.04
			c0.53,0,0.84-0.01,1.29-0.04c0.1,0.06,0.12,0.28,0.02,0.37l-0.28,0.06c-0.23,0.04-0.44,0.09-0.53,0.29
			c-0.17,0.39-0.17,1.5-0.17,2.51V46.29z"/>
		<path class="st0" d="M189.99,47.13c0,0.45,0.06,0.78,0.29,0.89l-0.01,0.19c-0.13,0-0.36,0.04-0.59,0.1
			c-0.76,0.18-1.68,0.34-2.37,0.34c-1.47,0-2.85-0.41-3.77-1.4c-0.72-0.78-1.08-1.85-1.08-2.92c0-1.07,0.36-2.16,1.13-2.99
			c0.87-0.95,2.2-1.5,3.91-1.5c0.58,0,1.2,0.1,1.63,0.19c0.28,0.06,0.64,0.11,0.78,0.11c0.01,0.38,0.1,1.03,0.16,2.02
			c-0.06,0.13-0.33,0.14-0.39,0.02c-0.27-1.23-1.14-1.85-2.35-1.85c-2.15,0-3.2,1.62-3.2,3.78c0,1.02,0.22,2.11,0.88,2.93
			c0.66,0.81,1.64,1.08,2.36,1.08c0.59,0,0.94-0.1,1.09-0.29c0.07-0.11,0.11-0.34,0.11-0.8v-0.46c0-0.9-0.01-0.98-0.83-1.12
			l-0.44-0.08c-0.09-0.09-0.09-0.3,0.01-0.37c0.48,0.02,1.06,0.04,1.91,0.04c0.55,0,0.97-0.01,1.49-0.04
			c0.12,0.06,0.13,0.28,0.02,0.37l-0.22,0.04c-0.45,0.06-0.53,0.18-0.53,0.95V47.13z"/>
	</g>
	<g>
		<polygon class="st1" points="19.28,11.82 7.75,29.9 21.32,47.77 39.51,20.08 		"/>
		<polygon class="st2" points="19.44,10.44 7.19,29.83 21.18,48.25 40.3,18.96 		"/>
		<polygon class="st3" points="19.51,9.33 7.26,28.71 21.25,47.14 40.37,17.85 		"/>
		<path class="st0" d="M22.77,25.03v5.15c0,3.89,0.06,7.2,2.25,7.38l1.26,0.11c0.22,0.15,0.17,0.91-0.07,0.93
			c-2.15,0.14-3.03,0.59-4.56,0.91c-1.84,0.39-3.28,1.47-5.02,1.55c-0.22-0.11-0.3-0.7-0.07-0.93l0.93-0.11
			c2.15-0.26,2.25-5.94,2.25-9.84V16.84c0-3.89-0.07-4.41-2.22-4.67l-0.59-0.08c-0.22-0.15-0.15-0.82,0.07-0.93
			c1.56,0.07,2.82,0.11,4.3,0.11h6.82c2.37,0,4.52,0,5.01-0.11c0,1.7,0.04,3.48,0.11,4.89c-0.11,0.22-0.63,0.33-0.89,0.11
			c-0.3-1.67-0.74-3-2.6-3.52c-0.81-0.19-2.04-0.22-3.6-0.22h-2.26c-1.11,0-1.11,0.08-1.11,1.49v7.82V25.03z"/>
		<path class="st3" d="M30.63,24.81c-2.16,2.92-5.58,3.46-8.09,5.79c-0.76,0.41-1.04,1.36-0.63,2.12c0.41,0.76,1.31,0.95,2.11,0.63
			c0.84-0.32,0.95-0.4,1.74-0.85"/>
		<path class="st0" d="M12.07,27.7c2.56-1.66,5.35-2.83,8.18-4c2.09-0.86,4.25-1.49,6.54-1.31c1.4,0.1,2.89-0.01,3.98,1.35
			c0.02,0.47,3.37-0.8,2.75-1.84c-0.65-1.09-1.75-1.63-2.94-1.96c-2.35-0.64-4.63-0.29-6.99,0.25c-3.15,0.72-5.65,2.26-8.4,3.79
			c-1.41,0.79-2.47,1.93-3.67,2.96c-0.2,0.15-0.25,0.45-0.1,0.66C11.57,27.81,11.86,27.86,12.07,27.7z"/>
		
			<linearGradient id="SVGID_1_" gradientUnits="userSpaceOnUse" x1="-203.9732" y1="449.0773" x2="-203.5603" y2="449.0773" gradientTransform="matrix(52.5553 0 0 -52.5553 10731.8828 23626.9922)">
			<stop  offset="0" style="stop-color:#003473"/>
			<stop  offset="0.1704" style="stop-color:#4A386A"/>
			<stop  offset="0.5628" style="stop-color:#C72A47"/>
			<stop  offset="0.6526" style="stop-color:#ED1A3B"/>
			<stop  offset="0.6843" style="stop-color:#EE273B"/>
			<stop  offset="0.7298" style="stop-color:#EF413A"/>
			<stop  offset="0.7836" style="stop-color:#F16039"/>
			<stop  offset="0.8438" style="stop-color:#F58136"/>
			<stop  offset="0.9092" style="stop-color:#FAA82D"/>
			<stop  offset="0.978" style="stop-color:#FFD803"/>
			<stop  offset="1" style="stop-color:#FFE800"/>
		</linearGradient>
		<path class="st4" d="M12.28,26.52c2.56-1.66,5.35-2.83,8.18-4c2.09-0.86,4.26-1.48,6.54-1.31c1.39,0.1,2.89-0.01,3.98,1.35
			c0.02,0.48-0.22,0.74-0.32,1.04c-0.02,0.07-0.28,0.38-0.33,0.45c-2.16,2.92-5.58,3.46-8.09,5.79c-0.76,0.41-1.04,1.36-0.63,2.12
			c0.41,0.76,1.36,1.04,2.11,0.63c2.1-0.65,3.83-1.89,5.76-3.07c2.22-1.36,3.98-3.24,4.72-5.67c0.28-1.05,0.15-2.09-0.47-3.12
			c-0.65-1.09-1.76-1.63-2.95-1.96c-2.35-0.64-4.62-0.29-6.99,0.25c-3.15,0.72-5.65,2.26-8.4,3.79c-1.41,0.78-2.48,1.93-3.66,2.96
			c-0.21,0.15-0.25,0.45-0.1,0.66C11.77,26.63,12.06,26.67,12.28,26.52z"/>
	</g>
</g>
</svg>
