<?xml version="1.0" encoding="utf-8"?>
<!-- Generator: Adobe Illustrator 27.1.1, SVG Export Plug-In . SVG Version: 6.00 Build 0)  -->
<svg version="1.1" id="Layer_1" xmlns="http://www.w3.org/2000/svg" xmlns:xlink="http://www.w3.org/1999/xlink" x="0px" y="0px"
	 viewBox="0 0 3240 432" style="enable-background:new 0 0 3240 432;" xml:space="preserve">
<style type="text/css">
	.st0{fill:#3B5577;}
	.st1{clip-path:url(#SVGID_00000016786919402087896670000017982733858435143098_);}
	.st2{fill:#FFFFFF;}
	.st3{font-family:'ArialMT';}
	.st4{font-size:463.5862px;}
	.st5{clip-path:url(#SVGID_00000016786919402087896670000017982733858435143098_);fill:#FFFFFF;}
</style>
<rect class="st0" width="3240" height="432"/>
<g>
	<defs>
		<rect id="SVGID_1_" width="3240" height="432"/>
	</defs>
	<clipPath id="SVGID_00000146464450613229935450000011259218115405160085_">
		<use xlink:href="#SVGID_1_"  style="overflow:visible;"/>
	</clipPath>
	<g style="clip-path:url(#SVGID_00000146464450613229935450000011259218115405160085_);">
		<text transform="matrix(1 0 0 1 77.4775 386.9697)" class="st2 st3 st4">ISLAND   BUM</text>
	</g>
	<path style="clip-path:url(#SVGID_00000146464450613229935450000011259218115405160085_);fill:#FFFFFF;" d="M1974.31,15.92
		c9.81,7.13,20.86,13.84,29.73,22.67c5.65,5.76,13.16,12.15,15.44,19.85c-3.19,1.7-7.47-0.98-10.95-1.21
		c-9.06-1.17-10.68-0.77-15.9-8.87c-3.77-1.78,1.16,6.88-4.17,5.43c-10.34-0.1-16.5-10.29-18.22-6.07
		c-2.49,2.38-3.57,10.61-8.07,7.63c-1.74-1.9-4.16-0.09-2.79,2.46c1.29,2.33,0.18,3.73-1.51,5.35c-2.44,3.52,2.77,3.36,4.98,3.32
		c13.42,1.28,26.94,2.1,40.08,5.04c10.13,3.1,18.94,17.62,27.45,24.66c20.06,23.1,43.29,47.07,52.5,76.67
		c-6.18-1.61-10.65-7.9-16.28-11.1c-5.54-4.53-13.89-7.51-14.78-15.51c-0.61-2.43-8.14-26.02-11.01-18.66
		c-1.32,2.79,1,14.34-4.17,11.85c-9.2-7.35-19.26-14.29-25.54-24.46c-2.22-1.82-1.99,2.47-2.07,3.75
		c-0.78,7.69-17.27-10.79-17.81-14.02c-1.81-2.71-2.09,1.99-3.33,2.56c-5.93-4.89-9.8-13.36-15.29-19.25
		c-2.81-2.18-2.8,7.09-3.71,8.7c-1.19,6.03-10.58-2.11-14.02,0.39c5.99,10.53,13.03,21.39,18.5,32.56
		c14.87,29.38,25.71,61.92,24.41,95.19c0.09,1.45-0.39,5.19-2.33,3.01c-6.62-10.35-13.62-20.65-21.61-30.01
		c-5.04-4.43,4.28-14.4,4.64-20.04c-4-0.4-8.05,8.88-11.24,3.59c-4.94-10.81-10.58-21.31-16-31.89c-4.75-7.85,8.01-17.05,3.93-25.65
		c-4.36,3.88-6.63,9.91-11.66,13.36c-2.74,1.08-4.47-6.55-6.29-8.64c-2.54-2.8-11.31-24.19-13.16-20.12
		c-1.97,2.85-6.32,2.62-7.23,6.5c-5.29,10.49-9.62,21.39-11.95,32.94c-2.97,12.38-2.87,5.68-7.49,8.74
		c-0.08,2.69,5.61,2.34,4.17,6.97c-3.54,18.57-3.52,37.42-3.94,56.23c0.08,1.65,1.32,2.23,2.75,1.43c3.18-1.56,6.76-2.56,10.32-2.67
		c15.03-1.78,12.07,12.03,20.43,18.35c6.25,2.08,12.4,4.8,18.92,5.78c0.36,0.13,0.8,0.68,0.79,1.03c-1.71,3.8-21.09-0.67-20.94,3.85
		c0.61,12.31-6.73,27.37-20.87,19.46c-1.17-0.8-3.2-1.95-2.21-3.58c1.79-1.8,4.71,0.94,6.67,1.49c9.99,4.35,12.08-9,12.79-16.03
		c1.59-6.14-13.78-1.85-17.64-2.99c-2.69,0.6-8.75-2.5-9.22,1.23c0.95,11.5,2.51,22.91,4.29,34.29c3.85,22.73,8.9,45.25,15.9,67.21
		c1.55,2.3,3.51,16.92,6.7,14.15c5.08-3.54,24.02-13.85,22.17-20.61c-4.71-9.64-7.64-20.06-10.22-30.39
		c-1.02-2.13-2.21-5.73-0.07-7.35c0.74-0.37,1.33,0.25,1.54,0.91c3.51,12.08,5.93,26.45,14.86,35.69
		c1.12,4.52,20.8-18.32,24.26-20.29c5.35-5.58,24.11-20.3,30.77-12.12c6.07,12.47,13.38,24.47,19.88,36.78
		c7.36,13.53,7.63,17.12,22.97,22.66c16.11,7.29,26.27,4.14,38.05-8.68c0.87-0.85,2.04-0.86,2.92-0.05
		c1.61,4.81-9.27,10.31-12.68,13.09c-12.8,7.77-27.02-1.78-38.92-5.99c2.44,6.97,11.02,10.98,17.51,13.93
		c4.47,0.6,9.54,1.57,12.08,5.72c1.78,2.63-2.57,3.86-3.31,1.74c-0.58-2.22-2.82-2.41-4.09-3.76c-3.81-0.78-7.94-1.46-11.42-3.49
		c-18.03-7.67-26.43-37.12-37.33-53.18c-3.34-4.31-6.76-16.66-11.53-17.92c-4.52,0.47-15.58,4.39-15.61,9.57
		c1.53,7.8,3.78,15.41,6.31,22.93c0.81,3.14,5.22,6.75,1.17,9.33c-8.31,5.53-15.25,12.77-22.7,19.35c-6.7,4.85,16.2,3.45,18.76,4.88
		c19.63,2.2,39.16,5.8,58.24,10.91c10.24,1.69,20.04,7.75,30.43,7.26c5-2.32,2.76-10.65,7.35-14.12c3.62-3.01,6.2-6.93,6.95-11.62
		c0.43-1.29,1.72-1.92,2.86-1.51c3.08,1.87-1.2,8.42-2.57,10.73c-2.72,3-5.54,5.81-6.98,9.69c-3.98,16.2-9.63,5.99,7.99,15.84
		c3.52,1.2,36.3,17.25,25.81,16.09c-41.8-13.17-85.36-20.32-128.59-27.13c-58.71-8.61-118.66-10.99-177.44-2.67
		c0.23-2.77,15.23-4.57,18.31-6.32c1.26-0.41,1.49-1.01,0.71-2.06c-2.24-2.49-3.56-5.56-5.08-8.52c-1.1-1.91,0.94-4.24,2.4-2.12
		c2.84,3.92,4.42,12.18,10.8,10.86c11.59-2.58,20.54-1.55,23.85-15.4c3.52-9.25-4.35-19.06,1.46-27.73c2.52-5.53,4.18-12,2.62-17.99
		c-3.44-6.1-5.81-6.72-7.31,0.72c-1.12,3.34-7.01,0.32-4.9-2.82c2.44-3.63,0.25-4.84-3.28-4.19c-6.78,1.21-6.9,8.43-9.17,13.56
		c-4.77,3.16-2.08-7.73-0.57-9.46c4.72-9.98,13.41-4.08,16.28-9.16c4.39-15.44,10.74-30.38,14.66-45.83
		c3.01-6.67,3.79-13.22,2.67-20.49c0.3-4.26-6.06-2.77-7.36-5.85c1.76-2.31,7.56,1.14,7.13-3.32c0.89-5.88-1.76-21.06,2-24.56
		c0.91-0.29,3.48-0.21,2.34-1.7c-1.35-1.47-3.9-1.81-3.5-4.3c0.43-8.99,1.02-17.97,2.03-26.92c0.88-2.94-0.35-10.86,4.62-8.88
		c0.85,0.46,2.39,0.82,3.05,0.05c-2.09-8.6-7.62-0.15-3.33-17.76c1.58-4.07,1.58-17.55,5.87-18.03c0.95,0.04,2.29,0.37,2.76-0.7
		c0.18-0.88-0.75-1.69-1.54-2.02c-3.83-2.03,2.38-12.3,3.09-16.2c1.31-3.57-3.74-4.72-4.49-7.95c-0.2-0.47-0.77-1.06-1.21-1.09
		c-3.22,2.16-5.58,6.56-6.58,10.36c-0.13,1-0.97,1.39-1.81,0.99c-1.91-1.65-1.32-13.25-4.46-10.62
		c-7.85,18.19,3.17,19.83-11.46,40.64c-2.92,5.44-5.4,11.1-7.21,17.01c-0.27,0.77-0.4,1.79-1.42,1.77
		c-2.55-0.59-0.84-4.46-3.54-5.28c-4.19,7.42-0.68,18.53-7.07,25.14c-7.46,7.19-10.46,17.87-15.97,25.82
		c-0.95-40.39,6.72-84.3,30.79-117.93c10.25-13.35,12.29-11.59-5.41-12.53c-2.56-0.33-2.04-3.91-1.05-5.54
		c0.63-0.99,1.69-1.92,0.96-3.22c-6.07-2.48-13.47,4.36-17.45,8.72c-2.21,2.56-8.67,2.77-11.46,1.39c-0.98-1.79,2.64-2.62,2.09-4.47
		c-1-0.7-2.43,0.6-3.36,1.05c-6.32,5.87-15.2,2.97-23.09,3.67c-7.31-0.49,1.47-9,0.26-12.67c-4.77-0.53-13.14,6.76-14.91,11.34
		c-0.64,1.39-1.03,1.64-2.51,1.39c-6.95-0.29-13.96,0.05-20.92,0.19c-2.51-0.61-13.33,3.72-11.58-0.65
		c6.41-6.87,14.07-12.61,22.45-16.88c20.7-11.71,44.61-16.51,68.27-16.28c5.93,0.17,11.84,0.41,17.7,1.43
		c1.98,0.01,7.2,2.02,6.33-1.68c-0.01-4.1-8.69-9.33-6.46-9.89c13.38,0.43,27.13,5.48,38.17,11.65
		c5.88-17.64,20.15-10.15,28.97,0.53c1.67,2.45,3.15-0.71,3.94-2.15c2.85-4.31,5.85-8.52,9.46-12.21
		c7.48-7.65,16.68-14.58,27.39-16.56c0.88-0.2,1.99-0.13,1.95-1.52H1974.31z M1884.62,374.11c0.01,0.06,0.03,0.13,0.04,0.19
		c13.02,2.51,5.1-24.36,4.36-31.42c-0.49-2.97,2.72-0.82,4.14-1.82c-0.55-1.98-2.52-3.25-3.78-4.84
		c-4.04-6.19-2.69-14.92-4.48-22.06c-1.12-3.68,4.36-3.13,4.83-5.97c-0.56-0.87-2.08-0.82-3.04-0.74c-3.62,0.05-3.23-4.79-3.45-7.33
		c-2.89-35.77-1.83-33.1-12.44-0.82c-0.28,3.13-6.32,12.48-2.46,13.62c6.99,3.36,8.67,11.28,7.34,18.32
		c-0.8,4.17-0.63,8.62-3.49,11.96c-0.61,0.94-0.96,1.86-0.78,2.95c1.18,5.28,2.7,10.62,2.13,16.07
		C1869.01,380.11,1864.35,376.12,1884.62,374.11"/>
	<path style="clip-path:url(#SVGID_00000146464450613229935450000011259218115405160085_);fill:#FFFFFF;" d="M1914.4,273.03
		c16.35,3.94,30.64,16.95,46.89,21.79c8.44,0.54,16.88,1.14,25.33,1.54c9.41,0.19,20.03-1.52,26.37,7.17
		c1.73,2.93,5.82,5.54,5.91,8.97c-1.88,1.85-3.78-1.39-4.81-2.73c-5.68-6.02-8.83-12.22-18.16-10.43
		c-5.36-0.12-10.69-0.61-16.03-1.17c-8.97-0.79-18.72,1.45-26.75-3.88c-11.92-2-36.74-24.25-45.15-15.17
		C1903.57,282.91,1903.62,272.89,1914.4,273.03"/>
	<path style="clip-path:url(#SVGID_00000146464450613229935450000011259218115405160085_);fill:#FFFFFF;" d="M1849.46,338.23
		c0.81-4.69,3.65-12.82,9.41-10.82C1868.84,334.1,1852.35,356.54,1849.46,338.23"/>
</g>
</svg>
