<?xml version="1.0" encoding="utf-8"?>
<!-- Generator: Adobe Illustrator 27.1.1, SVG Export Plug-In . SVG Version: 6.00 Build 0)  -->
<svg version="1.1" xmlns="http://www.w3.org/2000/svg" xmlns:xlink="http://www.w3.org/1999/xlink" x="0px" y="0px"
	 viewBox="0 0 349.56 171.06" style="enable-background:new 0 0 349.56 171.06;" xml:space="preserve">
<style type="text/css">
	.st0{fill:#E03A3E;stroke:#E03A3E;stroke-width:0.2;}
	.st1{fill:#FFFFFF;}
	.st2{fill:none;stroke:#000000;}
</style>
<g id="Layer_1">
	<path d="M340.15,99.9c-0.42-0.76-1.21-1.23-2.06-1.23c-1.17,0-2.37,0.76-4.98,2.47c-1.73,1.14-3.89,2.55-6.1,3.63
		c-4.28,2.09-7.82,2.53-9.7,1.2c-1.42-1-2.04-3.15-1.72-6.06c0.92-8.46,8.71-17.04,15.7-22.25l0.66-0.49
		c3.32-2.42,6.05-4.63,5.89-7.2c-0.12-1.94-1-3.52-2.88-5.37c-4.21-4.14-10.85-3.23-16.12-1.66c-1.57,0.47-4.24,1.54-7.26,2.84
		c2.26-5.65-4.4-4.28-7.41-3.78c-2.12,0.36-9.96,4.38-10.46,4.46c0,0-9.04,23.42-15,19.5c-0.94-0.62-0.83-1.89,0.01-3.49
		c2.32-3.79,6.69-7.44,8.97-9.35c1.28-1.07,1.87-1.56,2.2-2.02c0.92-1.23,0.31-2.93-0.37-4.14c-0.91-1.63-1.93-2.56-4.74-2.79
		c-3.27-0.27-7.29-0.24-10.07-0.18c-0.01,0-0.01,0-0.02,0c0.03-0.07,0.07-0.14,0.1-0.21c1-1.84,1.72-4.38,1.28-6.19
		c-0.6-2.47-2.63-4.08-4.54-4.21c-11.17-0.75-17.13,7.04-17.79,11.21c-0.38-0.08-4.93-1.05-8.31-1.77c-2.1-0.46-3.64-0.8-3.64-0.8
		l-0.02,0.03l-6.08,2.91c0.45-0.9-4.72,9.57-9.31,15.88c-3.5,4.81-6.84,4.56-6.75,1.81c0.17-5.34,7.07-13.36,11.27-17.76l3.16-3.13
		l-0.04,0c0.03-0.03,0.05-0.05,0.05-0.05h-19.12c0,0-2.77,2.42-5.69,5.75c0.25-1.94,0.38-3.38-0.19-4.94
		c-2.14-5.95-10.71-5.08-16.22-1.98c7.88-10.67,18.57-22.1,30.74-29.02l5.23-2.94c0,0-20.12-3.12-33.12,4.5
		c-4.73,2.78-9.72,6.87-19.49,18.55c-5.41,6.47-9.75,12.73-13.04,18.75c-0.79-0.48-1.79-0.67-2.87-0.54
		c-0.23,0.03-0.46,0.07-0.7,0.12c4.76-8.83-7.74-11.25-18.91-9.08c-8.68,1.68-15.75,5.58-20.92,10.45c0-0.13,0-0.26-0.01-0.39
		c-0.12-2.38-0.78-4.45-1.88-6.12c-1.42-2.48-4.67-4.78-11.48-5.76c-15.51-2.25-29.67,11.9-34.21,17.69
		c-1.77,0.2-5.16,1.16-5.16,1.16l-1.29,2.07c-3.65,5.84-19.8,25.87-25.43,17.74c-2.59-3.73,2.18-16.78,8.8-26.84
		c0.22-0.34,0.45-0.67,0.68-1.01c0.57-0.83,1.14-1.63,1.73-2.4c30.06-0.46,55.76-17.74,67.6-29.34
		c7.23-7.08,13.73-16.08,10.15-22.33c-3.85-6.72-13.66-7.2-22.86-5.44c-27.55,5.28-48.64,21.65-58.02,30.11
		c-3.52-5.15-7.43-13.55-9.85-19.97l-0.63-1.66l-4.47-0.62c0,0-9.88,3-17.58,12.25c1.17,8.67,10.6,21.24,16.33,26.25
		C25.3,65.42,8.85,88.2,8.85,105.2c0,3.55,0.63,6.82,1.86,9.74c1.84,4.35,5.06,7.43,9.31,8.89c8.88,3.07,20.24-1.54,28.2-5.94
		c9.34-5.16,16.45-11.21,20.94-15.59c1.68,2.2,3.81,3.89,6.32,4.97c7.7,3.3,16.97,0.61,23.08-3.01c4.81-2.85,7.57-6.53,9.3-9.07
		c0.02,0.01-0.6,7.66,4.5,11.49c-7.35,3.08-14.71,7.31-21.52,12.42c-10.4,7.81-18.42,16.97-21.46,24.5
		c-0.99,2.45-1.49,4.79-1.49,6.96c0,2.51,0.69,4.85,1.98,6.76c1.77,2.61,4.44,4.29,7.7,4.87c9.06,1.61,20.32-5.6,24.74-8.78
		c9.82-7.05,16.48-14.7,19.09-17.89c3.04,0,122.46,0,122.46,0s7.24-9.09,13.51-16.96l9-11.15c11.59,0.19,25.85-6.63,31.17-15.27
		c-2.57,5.58-4.22,11.66-4.22,17.16c0,1.13,0.08,2.24,0.23,3.3c0.92,6.49,3.36,11.05,7.25,13.55c5.35,3.45,11.47,1.66,13.48,1.07
		c7.13-2.08,15.87-10.89,15.87-10.89c2.16-2.16,6.25-7.27,8.12-10.08c0.28-0.42,0.56-0.84,0.84-1.28
		C340.49,102.79,340.83,101.13,340.15,99.9z M105.6,130.95c-4.13,6.1-11.41,11.87-12.25,9.9c-0.72-1.69,4.01-6.66,11.44-9.63
		C105.06,131.13,105.33,131.04,105.6,130.95z M252.3,95.23c0.29,3.62,0.67,5.25,2.75,7.5c-4.16,0-7.77,0-11.31,0
		c0.37-0.23,0.73-0.44,1.1-0.7C247.34,100.3,250.11,97.57,252.3,95.23z M225.96,102.73c-1.97,0-6.38,0.01-9.88,0
		c0.37-0.23,0.64-0.36,1.02-0.62c2.49-1.73,4.97-4.04,7.17-6.38C224.28,98.32,224.88,100.7,225.96,102.73z M146.71,102.84
		c2.22-3.75,5.04-8.35,8.12-12.94c-0.24,1.43-0.42,2.85-0.51,4.24c-0.04,0.6-0.06,1.18-0.06,1.74c0,2.91,0.54,5.16,1.33,6.95
		C150.75,102.84,147.56,102.84,146.71,102.84z M134.18,80.09c0.1-0.09,0.21-0.17,0.32-0.26c0.03-0.02,0.06-0.05,0.09-0.07
		c0.23-0.18,0.46-0.34,0.7-0.5c3.9-2.64,7.18-1.9,7.18-1.9s-4.32,8.07-5.62,9.75c-0.88,1.12-3,2.37-5,1
		c-0.38-0.26-0.66-0.65-0.83-1.12c-0.01-0.04-0.02-0.09-0.03-0.13c-0.04-0.23-0.06-0.47-0.06-0.73c0-1.7,0.93-4.01,3.12-5.9
		C134.09,80.17,134.14,80.13,134.18,80.09z M99.47,79.23c-0.67,1.92-2.75,5.75-5.33,6.83c-2.05,0.86-1.47-2.89-0.01-6.12
		c1.56-3.07,3.97-6.39,6.78-8.25c0.42-0.26,0.86-0.5,1.32-0.71c6.71-3.08,5.83,5.17,5.83,5.17s-0.58-0.05-3.58,0.21
		C101.59,76.6,100.14,77.31,99.47,79.23z M183.19,102.83c2.75-2.16,5.55-4.78,7.85-7.43c0.16,2.94,0.77,5.42,1.82,7.43
		C189.55,102.83,186.32,102.83,183.19,102.83z M183.47,75.1c0,0-1.12,3.5,1.7,6.45c0,0-4.05,6.67-5.63,6.79
		c-0.84,0.07-0.86-1.59-0.62-2.81c0.15-0.77,0.38-1.59,0.66-2.4c0.72-1.92,1.95-4.53,3.63-7.58
		C183.37,75.27,183.47,75.1,183.47,75.1z M86.43,34.66c0.4-0.2,0.8-0.4,1.21-0.6c9.5-4.58,13.33-5.33,13.71-2.58
		c0.29,2.14-2.63,8.61-12,13.12c-6.69,3.23-12.7,4.67-16.98,5.31c-2.62,0.36-4.87,0.48-6.57,0.5
		C68.91,46.94,75.48,40.62,86.43,34.66z"/>
	<g>
		<path class="st0" d="M211.64,29.98c-2.92,0.42-5.08,0.58-8.92,3.5c-2.83,2.15-36,31.17-37.75,57.75
			c-1.01,15.39,13.72,9.02,15.92,7.92c5.58-2.79,14.08-10.83,16.08-15.58c0,0,3,0,5.75,0.92c-0.33,1.92-1.73,10.65,1.75,14.25
			c2.5,2.58,7.05,2.25,12.25-0.75c5.65-3.26,9.25-6.5,9.25-6.5s0.86,7.01,8.42,7.33c3.83,0.17,8.25-0.2,13.83-4.08
			c8.5-5.92,16.42-19,16.42-19s4.17,1.17,9-0.17c0,0-8.54,7.98-9.98,13.54c-1.34,5.17,0.25,11.38,6.75,11.94
			c7.54,0.65,17.31-10.31,17.31-10.31s-0.62,1.77-0.67,3.17c-0.02,0.57-0.25,1.57,1.12,1.71c1.21,0.12,3.42,0.6,8.67-5.56
			c5.38-6.31,12.42-13.94,26.25-20.44c-6.88,7.88-20.73,26.66-18.79,39.96c1.83,12.58,10.58,11.5,14.58,10.33
			c6.19-1.81,12.2-8.1,13.71-9.6c2.12-2.12,3.65-4.08,5-6.25c1.75-2.81,1-3.56,0.5-3.56c-1.33,0-5.55,3.61-10.29,5.92
			c-9.75,4.75-14.85,1.2-14-6.67c1.04-9.62,10.04-18.75,16.42-23.5c1.9-1.42,5.96-4.12,5.83-6.12c-0.08-1.31-0.62-2.54-2.33-4.19
			c-0.64-0.61-2.19-2.19-7.44-0.62c-4.54,1.35-20.62,8.94-20.62,8.94s2.19-5.5,3.25-7.44c0.79-1.45,2.19-3.12,0.81-3.06
			c-1.92,0.09-6.5,0.81-6.5,0.81s-6.69,13.88-12.81,19.5c-2.43,2.23-13.77,11.83-14.94,4c-1.17-7.83,11.88-16.5,13-18
			c0.3-0.4-0.07-1.42-0.5-2.19c-0.62-1.12-1.14-1.7-3.31-1.88c-5.45-0.45-13.12-0.06-13.12-0.06s3.75-5.5,2.69-8.19
			c-0.77-1.94-1.92-2.67-4.42-2.5s-5.88,2.67-7.67,5c-2.5,3.25-5.83,8.67-1,14.25c0,0-5.67,8.42-13.83,14.83
			c-2.58,2.03-7.39,5.21-6-1c1.25-5.58,12.17-20.25,13.5-21.58l-12.17-2.67c0,0-10.25,15.58-13.25,18.75
			c-3.9,4.12-12.33,6.67-11.58-0.67c0.77-7.57,11.83-18.5,11.83-18.5l-10.92,0.17c0,0-10.25,10.83-13.33,16.17
			c-3-0.92-4.42-0.92-4.42-0.92s10.32-12.97,5.25-17.5c-2.33-2.08-6.08-1.83-9.67,0.92c-4.5,3.45-8.83,9.33-6.17,16.67
			c0,0-2.67,5.33-7.5,10c-4.42,4.27-6.43,1.32-5.83-3.67c0.83-7,20.17-41,45.67-55.5C222.72,29.98,215.14,29.48,211.64,29.98z"/>
		<path class="st0" d="M143.64,104.65c0,0,7.83-14.42,16.46-26.29c1.15-1.59,2.5-3.12,2.94-4.69c0.25-0.9-0.5-2.27-2.48-2.02
			c-1.78,0.23-4.03,1.17-4.03,1.17l2.17-5.29c0,0,1.37-3.51-3.06-3.95c-23.41-2.35-34.47,17.8-34.47,17.8s-0.74,0.85-3.02-1.2
			c-1.45-1.3,0.05-5.2-0.15-9.12c-0.2-3.93-2.26-8.22-7.98-9c-15.8-2.17-29.07,16.97-29.07,16.97l-6.89,0.79
			c0,0-15.82,25.49-31,22.42c-12.33-2.5-2.13-24.57,10.12-39.94c30.68,0.68,58.69-20.55,68.43-30.23c12.52-12.44,6.19-22-8.21-19.24
			c-36.06,6.91-60.84,33.99-60.84,33.99c-6.7-1.89-15.67-25.67-15.67-25.67s-8.41,3.04-12.9,8.78c2.9,14.31,19.38,26.19,19.38,26.19
			s-30.42,34.52-22.01,54.36c4.54,10.7,18.37,7.18,30.43,0.51c15.53-8.58,24.77-20.02,24.77-20.02
			c3.22,14.08,17.93,10.92,25.44,6.47c6.92-4.1,8.69-10.37,10.41-10.83c1.33-0.35,1.88,2.04,5.4,1.38c1.33-0.25,1.15-1.84,1.92-1.58
			c0.75,0.25-0.05,0.41-0.56,4.15c-2.44,17.69,16.44,9.38,16.44,9.38s-1.04,2.06-2.21,4.73c-30,6.33-60.75,36.42-53.33,47.33
			c4.3,6.33,16.46,1.21,25.33-5.17c12.26-8.8,19.58-18.83,19.58-18.83h122.5l18.88-23.38L143.64,104.65z M95.47,28.35
			c6.62-2.75,12.35-3.25,13.12-1c1.08,3.14-4.64,10.5-11.5,15.12c-17.25,11.62-35,9.62-35,9.62S71.39,38.35,95.47,28.35z
			 M114.09,78.29c0,0-2-0.39-5-0.12c-2.88,0.25-4.71,0.4-5.38,2.31c-0.67,1.92-1.92,4.58-4.25,6.75c-6.42,5.96-9.17,2.25-9-1.75
			c0.19-4.5,6.27-16.02,13.75-17C116.09,66.92,114.09,78.29,114.09,78.29z M90.47,142.85c-2-3,8.75-14.62,21.12-14.75
			C106.47,136.6,93.86,147.93,90.47,142.85z M131.97,90.35c-4.25-1.25-3.75-8,1.5-12c7.82-5.96,15.25-4,15.25-4
			s-5.75,10.75-7.38,13.12C140.22,89.1,134.6,91.13,131.97,90.35z"/>
	</g>
	<g>
		<path class="st1" d="M147.12,112.37l2.53,0.01c1.2,0,1.85,0.29,1.63,0.99c-0.24,0.77-1.13,1.08-2.26,1.08l-2.54,0L147.12,112.37z
			 M152.08,115.82c2.19-0.1,3.75-1.34,4.31-3.16c0.88-2.83-1.13-3.7-5.98-3.71l-7.12-0.02l-4.6,14.76l8.35,0.02
			c4.09,0.01,7.07-0.96,8.08-4.18c0.58-1.86,0.01-3.37-3.07-3.61L152.08,115.82z M145.41,117.86l2.58,0.01
			c1.62,0,2.48,0.49,2.23,1.29c-0.25,0.81-0.99,1.14-2.97,1.13l-2.59-0.01L145.41,117.86z"/>
		<path class="st1" d="M174.18,115.74l1.04-3.31l1.9,0c1.54,0,2.18,0.6,1.83,1.71c-0.34,1.07-1.31,1.6-2.86,1.6L174.18,115.74z
			 M179.1,118.44c2.29-0.53,4.28-1.88,5.09-4.46c1.41-4.47-3.14-4.96-5.88-4.97l-7.03-0.02l-4.64,14.76l5.04,0.01l1.47-4.66l0.86,0
			l1.6,4.67l6.47,0.01L179.1,118.44z"/>
		<path class="st1" d="M205.76,112.18c1.66,0,3,1.04,2.01,4.27c-0.99,3.2-2.96,4.24-4.62,4.23c-1.66,0-3-1.04-2.01-4.25
			c1-3.24,2.97-4.26,4.61-4.26H205.76z M196.31,116.42c-1.56,5.06,0.85,7.69,5.78,7.7c4.93,0.01,8.95-2.61,10.5-7.67
			c1.55-5.05-0.85-7.67-5.78-7.68c-4.93-0.01-8.94,2.6-10.49,7.62L196.31,116.42z"/>
		<path class="st1" d="M235.03,113.38c-0.04-0.71-0.36-1.12-1.12-1.12c-0.29,0-0.68,0.03-0.97,0.14c-0.21,0.09-0.36,0.25-0.41,0.39
			c-0.15,0.46,0.12,0.83,0.86,1.16c0.66,0.32,1.15,0.43,2.25,0.77c1.11,0.38,2.01,0.8,2.59,1.41c0.75,0.73,1.17,1.76,0.71,3.2
			c-0.39,1.18-1.3,2.45-2.87,3.4c-1.45,0.86-3.46,1.46-6.13,1.45c-4.67-0.01-6.23-1.95-5.77-4.58l5.67-0.22
			c-0.06,0.93,0.32,1.38,1.25,1.38c0.66,0,1.13-0.1,1.41-0.21c0.28-0.12,0.42-0.33,0.48-0.51c0.14-0.42,0.02-0.71-0.5-0.99
			c-0.53-0.25-1.16-0.52-2.03-0.85c-1.02-0.38-2.16-0.96-2.83-1.61c-0.74-0.66-1.37-1.67-0.81-3.39c0.41-1.25,1.29-2.35,2.67-3.12
			c1.41-0.79,3.32-1.25,5.75-1.24c3.86,0.01,5.64,1.77,5.28,4.4L235.03,113.38z"/>
		<path class="st1" d="M244.8,120.23l-1.16,3.69l-4.6-0.01l1.16-3.69L244.8,120.23z"/>
	</g>
	<g>
		<path d="M255.28,135.44l4.77-15.05h3.51l-4.77,15.05H255.28z"/>
		<path d="M272.16,132c0.54-2.01,1.72-5.91,3.53-11.61h3.21l-4.77,15.05h-4.85c-1.01-5.75-1.6-9.64-1.77-11.61h-0.1
			c-0.54,1.99-1.72,5.88-3.54,11.61h-3.21l4.77-15.05h4.87c1.02,5.71,1.6,9.62,1.77,11.61H272.16z"/>
		<path d="M289.93,130.67c-1.76,3.39-4.97,5.07-7.75,5.07c-1.66,0-3.2-0.47-4.03-1.61c-0.89-1.21-1.09-3.17-0.09-6.32
			c0.85-2.69,2.23-4.71,3.97-6.01c1.53-1.11,3.28-1.7,5.14-1.7c2.92,0,4.92,1.41,4.4,4.9l-3.54,0.27c0.23-1.87-0.15-2.86-1.62-2.86
			c-1.78,0-3.56,1.5-4.84,5.54c-1.3,4.12-0.33,5.5,1.31,5.5c1.59,0,2.88-1.41,3.65-3.12L289.93,130.67z"/>
		<path d="M293.16,132.45l-0.95,2.99h-3.16l0.95-2.99H293.16z"/>
	</g>
</g>
<g id="Kiss_Cut">
	<g>
		<path class="st2" d="M348.02,95.54c-7.53-14.81-30.35,6.52-11.4-10.61c16.95-8.48,10.77-32.5-9.89-32.29
			c-12.5,2.68-21.38-3.39-34.4,4.59c-9.63-1.08-11.24-14.08-22.27-12.89c-11.34-1.04-16.65,7.45-22.69,9.7
			c-8.08-1.81-23.7-1.16-32.41-1.32c-7.59-0.51,9.57-11.02,13.05-13.34c4.79-2.32,11.2-6.01,9.68-12.39
			c-3.23-8.96-7.21-7.3-18.62-8.03c-25.97,1.5-30.37,4.99-49.76,26.91c-5.97,11.2-9.56,5.85-21.04,5.27
			c-8.41,0-17.34,2.4-24.61,6.39c-11.17-6.92-2.9-7.44,1.78-12.96C148.63,21.2,141.88,2.5,114.94,0.5
			C90.9,1.08,64.15,16.17,50.99,26.64C47.4,18.86,45.55,8.46,34.71,9.32c-6.98,0.24-13.02,2.54-25.74,15.4
			c-6.44,10.5,5.04,23.86,11.43,32.68c-17.8,19.45-36.61,73.94,5.96,76.43c23.34,1.7,36.35-24.09,52.28-16.39
			c-51.79,50.56,9.29,75.49,46.91,27.08c0,0,166.66-0.08,166.66-0.08c12.37-1.26,3.14-10.01,15.98-7.22
			C327.04,136.9,354.8,111.06,348.02,95.54z"/>
	</g>
</g>
</svg>
