<?xml version="1.0" encoding="utf-8"?>
<!-- Generator: Adobe Illustrator 27.1.1, SVG Export Plug-In . SVG Version: 6.00 Build 0)  -->
<svg version="1.1" id="Layer_1" xmlns="http://www.w3.org/2000/svg" xmlns:xlink="http://www.w3.org/1999/xlink" x="0px" y="0px"
	 viewBox="0 0 90 126" style="enable-background:new 0 0 90 126;" xml:space="preserve">
<style type="text/css">
	.st0{fill-rule:evenodd;clip-rule:evenodd;fill:#36499B;}
	.st1{fill:#FFFFFF;stroke:#FFFFFF;stroke-width:0.5;}
</style>
<path class="st0" d="M45.76,8.36c9.56,8.81,22.49,13.29,38.88,12.48c0.11,20.59-0.95,42.98-7.44,61.2
	c-5.11,14.35-16.25,25.35-28.08,34.32c-1.47,1.11-4.04,3.43-5.04,3.36c-2.32-0.17-8.35-6.13-10.08-7.68
	c-9.29-8.35-17.29-18.84-22.08-30.96c-6.96-17.62-7.55-39.66-6-61.68C20.89,20.67,38.4,17.79,45.76,8.36z M46.24,20.12
	c-0.33,0.01-0.53-0.11-0.72-0.24c-4.75,4.27-16.71,11.56-23.52,6c0.24-3.72-2.67-5.48-5.04-5.04c-1.76,0.33-4.19,3.63-5.76,5.52
	c-1.81,2.18-4.04,5.47-3.84,7.68c0.35,3.88,4.38,4.62,6.96,6.96c-0.07,5.53,0.56,10.63,1.2,15.6c0.2,1.59,0.86,3.66,0.72,5.04
	c-0.36,3.56-4.94,7.73-3.84,12.72c0.91,4.11,6.23,5.43,10.08,7.2c5.41,10.75,12.12,20.2,21.84,26.64c3.69-2.08,6.18-5.34,9.36-7.92
	c5.71,3.49,9.03-1.62,12-5.28c1.83-2.26,5.03-5.33,4.8-7.68c-0.26-2.61-3.55-2.57-4.56-4.56c7.02-13.94,9.92-32,9.6-53.28
	C63.58,29.36,52.75,26.43,46.24,20.12z"/>
<path class="st0" d="M15.52,32.12c-1.05-1.46-3.26-2.65-5.76-1.92c1.84-3.52,4.95-5.77,7.44-8.64
	C25.64,22.81,17.76,29.42,15.52,32.12z"/>
<path class="st0" d="M44.32,45.8c-1.4-2.36-2.83-4.69-4.8-6.48c2.18-2.05,4.13-12.19,9.36-11.28c1.15,0.2,3.1,1.4,3.36,3.12
	c0.39,2.61-2.45,5.71-3.6,7.68C47.06,41.54,46,43.78,44.32,45.8z"/>
<path class="st0" d="M13.6,34.28c-1.1,0.22-1.36-0.4-2.16-0.48C11.41,30.07,15.89,31.48,13.6,34.28z"/>
<path class="st0" d="M71.92,53.96c-2.29,0.95-4.37-1.16-6.24-2.16c-5.78-3.1-12.31-6.23-18-9.6c0.88-2.64,2.6-4.44,3.84-6.72
	c4.82,0.44,5.34,5.41,7.92,8.4c1.82,2.11,4.48,3.5,6.72,4.8C68.14,49.83,71.83,50.68,71.92,53.96z"/>
<path class="st0" d="M58,97.16c-0.11,0.69-1.03,0.57-1.2,1.2c-1.27-0.41-1.76-1.6-3.6-1.44C53.53,92.99,56.53,96.22,58,97.16z"/>
<path class="st0" d="M53.44,97.4c1.49,0.27,2.36,1.16,3.36,1.92c0.52-0.44,1.21-0.71,1.44-1.44c0.86,0.34,1.59,0.81,1.68,1.92
	c-1.83,1.08-5.07,0.82-6.48-0.48C53.44,98.68,53.44,98.04,53.44,97.4z"/>
<path class="st0" d="M59.44,78.44c-6.65-8.34-9.2-20.22-14.64-30c-5.59-10.04-12.36-16.66-23.28-21.6
	c-3.08,1.5-5.07,9.67-10.32,7.44c-1.15-1.29,1.49-3.02,0.48-3.36c-1.85-0.35-3.33,0.79-3.36,2.64c-0.05,2.72,4,5.14,6.24,6.48
	c2.92,1.73,5.69,3.08,8.16,4.8c5.06,3.52,9.32,8.29,12,13.68c3.06,6.14,4.51,12.55,6.96,18.24c2.59,6.02,5.77,11.45,10.32,15.6
	c1.07,0.98,3.01,2.01,4.56,3.12c1.79,1.28,3.05,2.74,4.32,3.36c1.85-1.45,3.15-3.38,4.56-5.28c1.32-1.77,3.52-3.61,3.6-6.48
	C65.81,84.17,62.23,81.94,59.44,78.44z"/>
<path class="st0" d="M29.2,51.8c3.38,3.5,5.38,8.38,7.2,13.44c-2.41,5.75-5.08,11.24-9.12,15.36c-5,0.65-13.49-2.5-14.16-7.2
	c-0.54-3.84,4.25-13.99,6.48-17.04C21.56,53.68,24.73,51.79,29.2,51.8z"/>
<path class="st0" d="M88.96,16.04c0.64,26.7-1.08,49.78-8.4,68.4c-7.27,18.49-20.64,31.13-36.72,40.56
	c-14.86-10.41-29.07-22.94-35.76-42.24C1.89,64.89-1.08,38.59,1.84,14.6c17.48,2.29,36.47-1.54,44.4-12.48
	C54.58,13.42,71.73,17.6,88.96,16.04z M46.48,5c-3.01,2.16-7.02,6.08-11.52,8.16c-9.01,4.17-20.55,4.29-31.92,3.36
	c-0.59,11.11-0.89,23.83,0,34.56c2.87,34.61,18.19,57.75,41.04,71.76c15.08-9.67,29.3-21.95,35.52-41.04
	c6.29-19.32,8.95-41.45,7.2-64.08C68.23,19.57,55.23,13.77,46.48,5z"/>
<g>
	<path class="st1" d="M21.84,30.64c0.51,0.18,1.1,0.49,1.62,0.82c0.84,0.53,1.45,1.1,1.66,1.8c0.21,0.68,0.05,1.28-0.34,1.89
		c-0.54,0.86-1.42,1.24-2.45,1.07l-0.01,0.02c0.46,0.55,0.43,1.23,0.05,2.21c-0.4,1.01-0.71,1.92-0.73,2.26l-1.33-0.84
		c0.04-0.27,0.31-1.11,0.73-2.06c0.45-1.07,0.35-1.56-0.3-1.97l-0.29-0.18l-1.94,3.08l-1.27-0.8L21.84,30.64z M21.02,34.76
		l0.34,0.21c0.77,0.48,1.59,0.24,2.07-0.52c0.46-0.73,0.45-1.43-0.38-1.96c-0.17-0.11-0.33-0.19-0.46-0.23L21.02,34.76z"/>
	<path class="st1" d="M29.52,35.27l-3.53,4.57c-0.87,1.12-0.76,1.78-0.29,2.14c0.53,0.41,1.15,0.33,2.02-0.81l3.53-4.57l1.2,0.93
		l-3.39,4.38c-1.38,1.79-2.81,2.04-4.11,1.03c-1.38-1.07-1.38-2.45-0.06-4.17l3.43-4.43L29.52,35.27z"/>
	<path class="st1" d="M34.92,40.13c0.37,0.26,0.83,0.67,1.26,1.15c0.74,0.82,1.08,1.58,1.1,2.32c0.05,1.01-0.48,2.13-1.79,3.3
		c-1.4,1.26-2.62,1.67-3.59,1.56c-0.87-0.08-1.71-0.58-2.53-1.5c-0.35-0.39-0.67-0.81-0.86-1.1L34.92,40.13z M30.32,46.28
		c0.07,0.11,0.16,0.22,0.23,0.29c0.7,0.78,1.93,0.95,3.92-0.83c1.48-1.33,1.92-2.55,1.04-3.53c-0.1-0.12-0.22-0.22-0.32-0.3
		L30.32,46.28z"/>
	<path class="st1" d="M40.29,46.49c0.33,0.31,0.72,0.79,1.07,1.33c0.6,0.92,0.83,1.72,0.74,2.46c-0.11,1-0.8,2.03-2.27,2.99
		c-1.58,1.03-2.85,1.25-3.79,1c-0.85-0.21-1.6-0.83-2.27-1.86c-0.29-0.44-0.54-0.9-0.68-1.21L40.29,46.49z M34.81,51.86
		c0.05,0.12,0.13,0.24,0.18,0.32c0.57,0.88,1.77,1.23,4-0.23c1.66-1.09,2.29-2.22,1.57-3.33c-0.09-0.13-0.18-0.25-0.27-0.35
		L34.81,51.86z"/>
	<path class="st1" d="M41.94,58.98L41,56.92l-2.53,1.15l1.07,2.35l-1.1,0.5l-1.7-3.73l7.97-3.63l1.63,3.57l-1.1,0.5l-1-2.19l-2.19,1
		l0.94,2.06L41.94,58.98z"/>
	<path class="st1" d="M47.04,59.59c0.29,0.46,0.56,1.07,0.76,1.65c0.33,0.94,0.46,1.76,0.19,2.44c-0.26,0.66-0.75,1.03-1.44,1.27
		c-0.96,0.34-1.88,0.09-2.58-0.68l-0.02,0.01c0.02,0.71-0.42,1.23-1.33,1.76c-0.94,0.54-1.75,1.07-1.98,1.31l-0.52-1.48
		c0.19-0.19,0.93-0.67,1.85-1.16c1.02-0.55,1.24-1.01,0.99-1.73l-0.11-0.32l-3.43,1.21l-0.5-1.42L47.04,59.59z M43.84,62.31
		l0.13,0.37c0.3,0.86,1.1,1.17,1.95,0.88c0.81-0.29,1.23-0.84,0.92-1.77c-0.07-0.19-0.14-0.36-0.22-0.46L43.84,62.31z"/>
	<path class="st1" d="M45.14,77.4c-0.24-0.2-0.53-0.61-0.8-1.17c-0.93-1.97,0.02-3.8,2.47-4.95c3.05-1.43,4.97-0.19,5.69,1.34
		c0.27,0.56,0.35,1.01,0.33,1.22l-1.19,0.25c0-0.25-0.03-0.49-0.22-0.9c-0.44-0.94-1.68-1.53-3.85-0.51c-2.13,1-2.48,2.23-2,3.27
		c0.15,0.32,0.37,0.61,0.54,0.78L45.14,77.4z"/>
	<path class="st1" d="M53.67,75.09l0.79,1.29l-6.49,3.95l1.33,2.18l-1,0.61l-2.12-3.47L53.67,75.09z"/>
	<path class="st1" d="M56.94,79.94l-4.2,3.96c-1.03,0.97-1.03,1.63-0.62,2.07c0.46,0.48,1.08,0.5,2.12-0.48l4.2-3.96l1.04,1.1
		l-4.03,3.8c-1.65,1.55-3.09,1.57-4.22,0.37c-1.2-1.27-0.98-2.64,0.6-4.12l4.08-3.84L56.94,79.94z"/>
	<path class="st1" d="M60.89,84.68c0.43,0.3,0.92,0.73,1.42,1.25c0.59,0.63,1.06,1.31,1.11,2.07c0.05,0.6-0.21,1.14-0.67,1.57
		c-0.59,0.56-1.46,0.72-2.36,0.3l-0.03,0.03c0.55,0.98,0.38,2-0.39,2.73c-0.53,0.5-1.12,0.71-1.73,0.68c-0.8-0.01-1.64-0.5-2.58-1.5
		c-0.49-0.51-0.81-0.91-1.02-1.22L60.89,84.68z M56.41,90.98c0.07,0.11,0.17,0.23,0.3,0.38c0.63,0.67,1.47,0.82,2.2,0.13
		c0.75-0.71,0.59-1.63-0.01-2.26l-0.3-0.32L56.41,90.98z M59.36,88.19l0.3,0.32c0.54,0.57,1.38,0.63,1.96,0.08
		c0.53-0.5,0.67-1.14,0.03-1.82c-0.16-0.17-0.29-0.29-0.41-0.36L59.36,88.19z"/>
</g>
</svg>
